<svg xmlns="http://www.w3.org/2000/svg" xmlns:xlink="http://www.w3.org/1999/xlink" width="2880" zoomAndPan="magnify" viewBox="0 0 2160 719.999996" height="960" preserveAspectRatio="xMidYMid meet" version="1.0"><defs><g/></defs><path fill="#f89e19" d="M 1612.953125 289.628906 L 1596.640625 295.914062 L 1696.246094 554.09375 L 1712.566406 547.800781 C 1783.898438 520.316406 1819.421875 440.238281 1791.921875 368.945312 C 1764.414062 297.648438 1684.289062 262.132812 1612.953125 289.628906 " fill-opacity="1" fill-rule="nonzero"/><path fill="#f5c116" d="M 1769.941406 377.414062 C 1797.445312 448.703125 1761.914062 528.785156 1690.578125 556.277344 C 1619.25 583.773438 1539.121094 548.265625 1511.609375 476.964844 C 1484.105469 405.675781 1519.628906 325.59375 1590.964844 298.101562 C 1662.304688 270.605469 1742.433594 306.121094 1769.941406 377.414062 " fill-opacity="1" fill-rule="nonzero"/><path fill="#f89e19" d="M 1667.996094 474.582031 C 1672.796875 471.617188 1676.085938 467.605469 1677.859375 462.515625 C 1679.621094 457.425781 1679.519531 452.300781 1677.523438 447.121094 C 1675.734375 442.488281 1672.828125 439.023438 1668.800781 436.726562 C 1664.777344 434.429688 1659.316406 433.570312 1652.40625 434.183594 Z M 1610.445312 370.171875 C 1606.898438 373.109375 1604.554688 376.703125 1603.421875 380.953125 C 1602.28125 385.199219 1602.472656 389.335938 1604.019531 393.335938 C 1605.433594 397.003906 1607.851562 399.96875 1611.277344 402.261719 C 1614.691406 404.546875 1619.03125 405.800781 1624.265625 406 Z M 1652.40625 478.921875 L 1635.660156 435.515625 C 1620.617188 436.867188 1608.4375 434.855469 1599.082031 429.453125 C 1589.742188 424.042969 1582.902344 415.746094 1578.597656 404.5625 C 1574.226562 393.238281 1574.128906 382.339844 1578.3125 371.890625 C 1582.488281 361.441406 1590.296875 353.332031 1601.730469 347.574219 L 1597.773438 337.320312 L 1612.800781 331.527344 L 1616.757812 341.785156 C 1628.246094 338.863281 1638.429688 339.242188 1647.308594 342.914062 C 1656.203125 346.613281 1663.53125 353.261719 1669.320312 362.945312 L 1644.417969 376.460938 C 1639.683594 368.917969 1633.402344 365 1625.589844 364.679688 L 1641.222656 405.183594 C 1659.535156 403.277344 1673.074219 404.742188 1681.839844 409.570312 C 1690.613281 414.402344 1697.148438 422.414062 1701.46875 433.601562 C 1706.292969 446.109375 1706.570312 458.09375 1702.3125 469.550781 C 1698.046875 481.054688 1689.546875 490.34375 1676.832031 497.480469 L 1684.296875 516.855469 L 1669.269531 522.636719 L 1662.003906 503.792969 C 1649.480469 506.9375 1638.058594 506.234375 1627.710938 501.652344 C 1617.378906 497.0625 1608.554688 488.363281 1601.226562 475.566406 L 1627.152344 462.242188 C 1630.394531 467.332031 1634.296875 471.296875 1638.890625 474.152344 C 1643.472656 476.96875 1647.984375 478.5625 1652.40625 478.921875 " fill-opacity="1" fill-rule="nonzero"/><path fill="#e98b1b" d="M 1661.164062 287.839844 C 1657.640625 287.4375 1654.09375 287.140625 1650.527344 287.011719 L 1663.550781 282 C 1667.386719 282 1671.214844 282.132812 1675.007812 282.460938 L 1674.859375 282.558594 L 1661.164062 287.839844 " fill-opacity="1" fill-rule="nonzero"/><path fill="#e98b1b" d="M 1676.273438 290.378906 C 1673.453125 289.730469 1670.609375 289.21875 1667.757812 288.75 L 1682.023438 283.246094 C 1684.390625 283.574219 1686.742188 283.96875 1689.089844 284.421875 C 1688.902344 285.09375 1688.441406 285.683594 1687.738281 285.957031 L 1676.273438 290.378906 " fill-opacity="1" fill-rule="nonzero"/><path fill="#e98b1b" d="M 1624.90625 288.523438 L 1632.546875 285.578125 C 1639.597656 283.929688 1646.679688 282.84375 1653.738281 282.332031 L 1641.609375 287.011719 C 1636.050781 287.175781 1630.484375 287.667969 1624.90625 288.523438 " fill-opacity="1" fill-rule="nonzero"/><path fill="#e98b1b" d="M 1688.878906 293.894531 C 1686.503906 293.101562 1684.097656 292.402344 1681.683594 291.746094 L 1696.453125 286.050781 C 1698.320312 286.511719 1700.1875 287.007812 1702.027344 287.554688 C 1701.910156 288.351562 1701.421875 289.050781 1700.625 289.363281 L 1688.878906 293.894531 " fill-opacity="1" fill-rule="nonzero"/><path fill="#e98b1b" d="M 1699.828125 298.03125 C 1697.753906 297.140625 1695.65625 296.320312 1693.546875 295.542969 L 1708.679688 289.707031 C 1710.640625 290.398438 1712.589844 291.121094 1714.53125 291.902344 C 1714.28125 292.269531 1713.949219 292.597656 1713.5 292.761719 L 1699.828125 298.03125 " fill-opacity="1" fill-rule="nonzero"/><path fill="#e98b1b" d="M 1709.585938 302.636719 C 1707.746094 301.683594 1705.867188 300.761719 1703.976562 299.878906 L 1719.386719 293.945312 C 1721.304688 294.796875 1723.203125 295.707031 1725.09375 296.660156 L 1709.585938 302.636719 " fill-opacity="1" fill-rule="nonzero"/><path fill="#e98b1b" d="M 1718.378906 307.605469 C 1716.726562 306.582031 1715.050781 305.582031 1713.347656 304.640625 L 1728.855469 298.652344 C 1730.582031 299.601562 1732.289062 300.585938 1733.984375 301.597656 L 1718.378906 307.605469 " fill-opacity="1" fill-rule="nonzero"/><path fill="#e98b1b" d="M 1726.339844 312.921875 C 1724.828125 311.832031 1723.289062 310.789062 1721.738281 309.769531 L 1737.425781 303.730469 C 1738.992188 304.738281 1740.550781 305.769531 1742.089844 306.847656 L 1726.339844 312.921875 " fill-opacity="1" fill-rule="nonzero"/><path fill="#e98b1b" d="M 1733.59375 318.484375 C 1732.21875 317.351562 1730.839844 316.246094 1729.421875 315.164062 L 1745.175781 309.105469 C 1746.605469 310.171875 1748.011719 311.261719 1749.40625 312.394531 L 1733.59375 318.484375 " fill-opacity="1" fill-rule="nonzero"/><path fill="#e98b1b" d="M 1740.261719 324.28125 C 1738.996094 323.101562 1737.710938 321.964844 1736.414062 320.847656 L 1752.28125 314.722656 C 1753.589844 315.839844 1754.859375 316.992188 1756.128906 318.160156 L 1740.261719 324.28125 " fill-opacity="1" fill-rule="nonzero"/><path fill="#e98b1b" d="M 1746.300781 330.316406 C 1745.152344 329.105469 1743.976562 327.917969 1742.789062 326.757812 L 1758.695312 320.617188 C 1759.90625 321.785156 1761.097656 322.957031 1762.257812 324.175781 L 1746.300781 330.316406 " fill-opacity="1" fill-rule="nonzero"/><path fill="#e98b1b" d="M 1783.847656 433.171875 C 1783.945312 431.515625 1784.027344 429.847656 1784.058594 428.175781 L 1800.011719 422.027344 C 1799.964844 423.699219 1799.867188 425.375 1799.765625 427.039062 L 1783.847656 433.171875 " fill-opacity="1" fill-rule="nonzero"/><path fill="#e98b1b" d="M 1783.09375 441.832031 C 1783.300781 440.121094 1783.492188 438.410156 1783.640625 436.707031 L 1799.5 430.589844 C 1799.351562 432.304688 1799.183594 434.015625 1798.960938 435.726562 L 1783.09375 441.832031 " fill-opacity="1" fill-rule="nonzero"/><path fill="#e98b1b" d="M 1781.726562 450.722656 C 1782.050781 448.976562 1782.332031 447.226562 1782.589844 445.472656 L 1798.402344 439.378906 C 1798.128906 441.148438 1797.820312 442.898438 1797.476562 444.652344 L 1781.726562 450.722656 " fill-opacity="1" fill-rule="nonzero"/><path fill="#e98b1b" d="M 1779.660156 459.886719 C 1780.128906 458.078125 1780.554688 456.285156 1780.957031 454.472656 L 1796.707031 448.402344 C 1796.289062 450.222656 1795.824219 452.027344 1795.339844 453.84375 L 1779.660156 459.886719 " fill-opacity="1" fill-rule="nonzero"/><path fill="#e98b1b" d="M 1776.890625 469.320312 C 1777.507812 467.476562 1778.078125 465.59375 1778.617188 463.738281 L 1794.222656 457.722656 C 1793.648438 459.605469 1793.042969 461.488281 1792.394531 463.34375 L 1776.890625 469.320312 " fill-opacity="1" fill-rule="nonzero"/><path fill="#e98b1b" d="M 1780.171875 392.765625 C 1779.800781 391.261719 1779.445312 389.777344 1779.03125 388.285156 L 1795.113281 382.089844 C 1795.519531 383.578125 1795.878906 385.074219 1796.246094 386.574219 L 1780.171875 392.765625 " fill-opacity="1" fill-rule="nonzero"/><path fill="#e98b1b" d="M 1781.824219 400.492188 C 1781.542969 398.964844 1781.269531 397.4375 1780.9375 395.914062 L 1797.003906 389.734375 C 1797.320312 391.246094 1797.605469 392.777344 1797.882812 394.300781 L 1781.824219 400.492188 " fill-opacity="1" fill-rule="nonzero"/><path fill="#e98b1b" d="M 1778.101562 385.203125 C 1777.640625 383.734375 1777.191406 382.273438 1776.699219 380.824219 L 1792.789062 374.617188 C 1793.277344 376.074219 1793.742188 377.53125 1794.171875 378.996094 L 1778.101562 385.203125 " fill-opacity="1" fill-rule="nonzero"/><path fill="#e98b1b" d="M 1775.613281 377.789062 C 1775.339844 377.042969 1775.101562 376.285156 1774.816406 375.542969 C 1774.546875 374.847656 1774.242188 374.195312 1773.964844 373.503906 L 1790.058594 367.304688 C 1790.335938 367.984375 1790.636719 368.640625 1790.898438 369.339844 C 1791.191406 370.078125 1791.4375 370.839844 1791.703125 371.582031 L 1775.613281 377.789062 " fill-opacity="1" fill-rule="nonzero"/><path fill="#e98b1b" d="M 1772.734375 370.535156 C 1772.125 369.117188 1771.484375 367.726562 1770.839844 366.347656 L 1786.925781 360.144531 C 1787.574219 361.535156 1788.21875 362.917969 1788.820312 364.332031 L 1772.734375 370.535156 " fill-opacity="1" fill-rule="nonzero"/><path fill="#e98b1b" d="M 1769.449219 363.449219 C 1768.761719 362.054688 1768.035156 360.695312 1767.300781 359.351562 L 1783.375 353.152344 C 1784.105469 354.507812 1784.84375 355.851562 1785.539062 357.246094 L 1769.449219 363.449219 " fill-opacity="1" fill-rule="nonzero"/><path fill="#e98b1b" d="M 1765.757812 356.488281 C 1764.984375 355.144531 1764.164062 353.820312 1763.347656 352.496094 L 1779.402344 346.308594 C 1780.226562 347.632812 1781.042969 348.945312 1781.824219 350.308594 L 1765.757812 356.488281 " fill-opacity="1" fill-rule="nonzero"/><path fill="#e98b1b" d="M 1761.601562 349.730469 C 1760.753906 348.414062 1759.871094 347.101562 1758.964844 345.824219 L 1775.003906 339.644531 C 1775.910156 340.925781 1776.785156 342.234375 1777.648438 343.535156 L 1761.601562 349.730469 " fill-opacity="1" fill-rule="nonzero"/><path fill="#e98b1b" d="M 1757.011719 343.132812 C 1756.070312 341.855469 1755.121094 340.566406 1754.136719 339.324219 L 1770.128906 333.167969 C 1771.125 334.398438 1772.078125 335.679688 1773.03125 336.957031 L 1757.011719 343.132812 " fill-opacity="1" fill-rule="nonzero"/><path fill="#e98b1b" d="M 1751.960938 336.707031 C 1750.921875 335.460938 1749.867188 334.222656 1748.792969 333.027344 L 1764.742188 326.875 C 1765.828125 328.070312 1766.90625 329.304688 1767.953125 330.554688 L 1751.960938 336.707031 " fill-opacity="1" fill-rule="nonzero"/><path fill="#e98b1b" d="M 1783.058594 408.386719 C 1782.863281 406.828125 1782.632812 405.273438 1782.382812 403.726562 L 1798.433594 397.539062 C 1798.671875 399.09375 1798.910156 400.652344 1799.097656 402.203125 L 1783.058594 408.386719 " fill-opacity="1" fill-rule="nonzero"/><path fill="#e98b1b" d="M 1783.828125 416.453125 C 1783.726562 414.867188 1783.5625 413.289062 1783.40625 411.691406 L 1799.425781 405.519531 C 1799.578125 407.113281 1799.722656 408.699219 1799.8125 410.292969 L 1783.828125 416.453125 " fill-opacity="1" fill-rule="nonzero"/><path fill="#e98b1b" d="M 1784.085938 424.710938 C 1784.074219 423.097656 1784.03125 421.472656 1783.96875 419.847656 L 1799.957031 413.6875 C 1800.019531 415.3125 1800.039062 416.945312 1800.042969 418.5625 L 1784.085938 424.710938 " fill-opacity="1" fill-rule="nonzero"/><path fill="#e98b1b" d="M 1773.136719 479.132812 C 1773.949219 477.203125 1774.726562 475.28125 1775.445312 473.316406 L 1790.941406 467.351562 C 1790.1875 469.308594 1789.386719 471.269531 1788.535156 473.195312 L 1773.136719 479.132812 " fill-opacity="1" fill-rule="nonzero"/><path fill="#e98b1b" d="M 1768.320312 489.355469 C 1769.363281 487.359375 1770.359375 485.332031 1771.308594 483.285156 L 1784.972656 478.007812 C 1785.210938 477.921875 1785.445312 477.886719 1785.683594 477.886719 C 1785.894531 477.886719 1786.109375 477.910156 1786.3125 477.960938 C 1785.402344 479.839844 1784.445312 481.683594 1783.457031 483.515625 L 1768.320312 489.355469 " fill-opacity="1" fill-rule="nonzero"/><path fill="#e98b1b" d="M 1762.078125 500.125 C 1763.425781 498.007812 1764.742188 495.878906 1765.984375 493.707031 L 1777.710938 489.183594 C 1777.976562 489.078125 1778.238281 489.035156 1778.5 489.035156 C 1779.035156 489.035156 1779.554688 489.230469 1779.972656 489.570312 C 1778.964844 491.210938 1777.921875 492.824219 1776.855469 494.433594 L 1762.078125 500.125 " fill-opacity="1" fill-rule="nonzero"/><path fill="#e98b1b" d="M 1753.769531 511.695312 C 1755.574219 509.429688 1757.335938 507.132812 1758.992188 504.765625 L 1770.457031 500.347656 C 1770.714844 500.246094 1770.972656 500.203125 1771.230469 500.203125 C 1771.679688 500.203125 1772.109375 500.34375 1772.484375 500.585938 C 1771.054688 502.484375 1769.574219 504.363281 1768.039062 506.203125 L 1753.769531 511.695312 " fill-opacity="1" fill-rule="nonzero"/><path fill="#e98b1b" d="M 1742.171875 524.535156 C 1744.71875 522.039062 1747.160156 519.453125 1749.496094 516.777344 L 1763.195312 511.5 L 1763.378906 511.480469 C 1760.773438 514.261719 1758.035156 516.929688 1755.1875 519.503906 L 1742.171875 524.535156 " fill-opacity="1" fill-rule="nonzero"/><path fill="#e98b1b" d="M 1722.171875 540.597656 C 1726.867188 537.488281 1731.34375 534.121094 1735.5625 530.511719 L 1747.695312 525.847656 C 1742.117188 530.195312 1736.144531 534.152344 1729.800781 537.65625 L 1722.171875 540.597656 " fill-opacity="1" fill-rule="nonzero"/><g fill="#e98b1b" fill-opacity="0.302"><g transform="translate(46.84648, 549.975407)"><g><path d="M 128.25 -325.609375 C 146.019531 -325.609375 159.722656 -323.722656 169.359375 -319.953125 C 178.992188 -316.191406 187.269531 -312.207031 194.1875 -308 C 197.800781 -305.894531 200.738281 -304.3125 203 -303.25 C 205.257812 -302.195312 207.441406 -301.671875 209.546875 -301.671875 C 212.554688 -301.671875 214.738281 -303.328125 216.09375 -306.640625 C 217.445312 -309.953125 218.578125 -314.921875 219.484375 -321.546875 L 229.875 -321.546875 C 229.570312 -315.828125 229.191406 -308.976562 228.734375 -301 C 228.285156 -293.019531 227.984375 -282.554688 227.828125 -269.609375 C 227.679688 -256.660156 227.609375 -239.648438 227.609375 -218.578125 L 217.21875 -218.578125 C 216.019531 -234.234375 212.410156 -249.4375 206.390625 -264.1875 C 200.367188 -278.945312 191.863281 -291.066406 180.875 -300.546875 C 169.882812 -310.023438 156.410156 -314.765625 140.453125 -314.765625 C 125.992188 -314.765625 114.097656 -310.703125 104.765625 -302.578125 C 95.441406 -294.453125 90.78125 -283.160156 90.78125 -268.703125 C 90.78125 -256.660156 93.789062 -246.347656 99.8125 -237.765625 C 105.832031 -229.191406 114.632812 -220.835938 126.21875 -212.703125 C 137.8125 -204.578125 151.890625 -194.796875 168.453125 -183.359375 C 182.898438 -174.023438 195.84375 -164.691406 207.28125 -155.359375 C 218.726562 -146.023438 227.910156 -135.484375 234.828125 -123.734375 C 241.753906 -111.992188 245.21875 -97.992188 245.21875 -81.734375 C 245.21875 -61.867188 240.023438 -45.460938 229.640625 -32.515625 C 219.253906 -19.566406 205.628906 -9.851562 188.765625 -3.375 C 171.910156 3.09375 153.394531 6.328125 133.21875 6.328125 C 114.550781 6.328125 99.648438 4.519531 88.515625 0.90625 C 77.378906 -2.707031 68.046875 -6.472656 60.515625 -10.390625 C 53.890625 -14.597656 48.769531 -16.703125 45.15625 -16.703125 C 42.144531 -16.703125 39.960938 -15.046875 38.609375 -11.734375 C 37.253906 -8.429688 36.125 -3.46875 35.21875 3.15625 L 24.84375 3.15625 C 25.4375 -4.0625 25.804688 -12.488281 25.953125 -22.125 C 26.109375 -31.757812 26.257812 -44.328125 26.40625 -59.828125 C 26.5625 -75.335938 26.640625 -94.984375 26.640625 -118.765625 L 37.03125 -118.765625 C 38.238281 -98.898438 41.625 -80.3125 47.1875 -63 C 52.757812 -45.6875 61.34375 -31.757812 72.9375 -21.21875 C 84.53125 -10.6875 99.957031 -5.421875 119.21875 -5.421875 C 129.757812 -5.421875 139.171875 -7.300781 147.453125 -11.0625 C 155.734375 -14.820312 162.429688 -20.46875 167.546875 -28 C 172.660156 -35.53125 175.21875 -44.863281 175.21875 -56 C 175.21875 -68.644531 172.28125 -79.632812 166.40625 -88.96875 C 160.539062 -98.300781 152.566406 -107.03125 142.484375 -115.15625 C 132.398438 -123.289062 120.734375 -131.570312 107.484375 -140 C 93.328125 -149.332031 80.078125 -158.664062 67.734375 -168 C 55.390625 -177.332031 45.53125 -188.019531 38.15625 -200.0625 C 30.78125 -212.101562 27.09375 -226.40625 27.09375 -242.96875 C 27.09375 -261.9375 31.832031 -277.515625 41.3125 -289.703125 C 50.800781 -301.898438 63.296875 -310.929688 78.796875 -316.796875 C 94.304688 -322.671875 110.789062 -325.609375 128.25 -325.609375 Z M 128.25 -325.609375 "/></g></g></g><g fill="#e98b1b" fill-opacity="0.302"><g transform="translate(294.325905, 549.975407)"><g><path d="M 102.96875 -238.453125 L 102.96875 37.03125 C 102.96875 51.175781 106.578125 60.582031 113.796875 65.25 C 121.023438 69.914062 130.960938 72.25 143.609375 72.25 L 143.609375 81.734375 C 135.785156 81.441406 125.023438 81.066406 111.328125 80.609375 C 97.628906 80.160156 83.097656 79.9375 67.734375 79.9375 C 56.597656 79.9375 45.6875 80.160156 35 80.609375 C 24.3125 81.066406 16.257812 81.441406 10.84375 81.734375 L 10.84375 72.25 C 20.769531 72.25 27.765625 70.140625 31.828125 65.921875 C 35.898438 61.710938 37.9375 53.585938 37.9375 41.546875 L 37.9375 -184.25 C 37.9375 -197.800781 35.828125 -207.8125 31.609375 -214.28125 C 27.398438 -220.757812 19.875 -224 9.03125 -224 L 9.03125 -233.484375 C 18.664062 -232.578125 28 -232.125 37.03125 -232.125 C 49.375 -232.125 61.113281 -232.648438 72.25 -233.703125 C 83.394531 -234.753906 93.632812 -236.335938 102.96875 -238.453125 Z M 172.96875 -239.796875 C 188.320312 -239.796875 202.019531 -235.65625 214.0625 -227.375 C 226.101562 -219.101562 235.734375 -206.613281 242.953125 -189.90625 C 250.179688 -173.195312 253.796875 -152.347656 253.796875 -127.359375 C 253.796875 -105.378906 251.3125 -86.109375 246.34375 -69.546875 C 241.382812 -52.984375 234.3125 -39.054688 225.125 -27.765625 C 215.945312 -16.484375 204.957031 -7.976562 192.15625 -2.25 C 179.363281 3.46875 164.988281 6.328125 149.03125 6.328125 C 137.289062 6.328125 126.601562 4.289062 116.96875 0.21875 C 107.332031 -3.84375 99.957031 -9.632812 94.84375 -17.15625 L 99.359375 -23.03125 C 102.367188 -17.613281 106.65625 -13.398438 112.21875 -10.390625 C 117.789062 -7.378906 124.191406 -5.875 131.421875 -5.875 C 144.960938 -5.875 155.644531 -10.460938 163.46875 -19.640625 C 171.300781 -28.828125 176.945312 -41.773438 180.40625 -58.484375 C 183.875 -75.191406 185.609375 -95.140625 185.609375 -118.328125 C 185.609375 -144.210938 183.953125 -164.53125 180.640625 -179.28125 C 177.328125 -194.039062 172.8125 -204.582031 167.09375 -210.90625 C 161.375 -217.226562 154.453125 -220.390625 146.328125 -220.390625 C 135.484375 -220.390625 125.617188 -216.171875 116.734375 -207.734375 C 107.859375 -199.304688 102.816406 -187.265625 101.609375 -171.609375 L 99.359375 -187.421875 C 104.773438 -204.578125 114.03125 -217.59375 127.125 -226.46875 C 140.21875 -235.351562 155.5 -239.796875 172.96875 -239.796875 Z M 172.96875 -239.796875 "/></g></g></g><g fill="#e98b1b" fill-opacity="0.302"><g transform="translate(549.031066, 549.975407)"><g><path d="M 127.359375 -239.796875 C 153.847656 -239.796875 174.617188 -231.96875 189.671875 -216.3125 C 204.722656 -200.664062 212.25 -175.078125 212.25 -139.546875 L 63.671875 -139.546875 L 62.78125 -148.125 L 155.359375 -148.125 C 155.660156 -162.875 154.753906 -176.492188 152.640625 -188.984375 C 150.535156 -201.484375 147.222656 -211.5 142.703125 -219.03125 C 138.191406 -226.5625 132.171875 -230.328125 124.640625 -230.328125 C 114.109375 -230.328125 105.148438 -223.703125 97.765625 -210.453125 C 90.390625 -197.203125 85.953125 -175.222656 84.453125 -144.515625 L 85.8125 -141.8125 C 85.507812 -138.195312 85.28125 -134.429688 85.125 -130.515625 C 84.976562 -126.597656 84.90625 -122.535156 84.90625 -118.328125 C 84.90625 -97.546875 87.835938 -80.679688 93.703125 -67.734375 C 99.578125 -54.796875 107.03125 -45.390625 116.0625 -39.515625 C 125.09375 -33.640625 134.273438 -30.703125 143.609375 -30.703125 C 149.929688 -30.703125 156.476562 -31.679688 163.25 -33.640625 C 170.03125 -35.597656 176.878906 -39.210938 183.796875 -44.484375 C 190.722656 -49.753906 197.195312 -57.207031 203.21875 -66.84375 L 211.359375 -64.125 C 207.742188 -52.6875 202.019531 -41.546875 194.1875 -30.703125 C 186.363281 -19.867188 176.429688 -10.988281 164.390625 -4.0625 C 152.347656 2.863281 137.894531 6.328125 121.03125 6.328125 C 100.5625 6.328125 82.5 1.960938 66.84375 -6.765625 C 51.1875 -15.503906 38.914062 -28.753906 30.03125 -46.515625 C 21.144531 -64.273438 16.703125 -86.851562 16.703125 -114.25 C 16.703125 -142.25 21.441406 -165.582031 30.921875 -184.25 C 40.410156 -202.914062 53.507812 -216.835938 70.21875 -226.015625 C 86.9375 -235.203125 105.984375 -239.796875 127.359375 -239.796875 Z M 127.359375 -239.796875 "/></g></g></g><g fill="#e98b1b" fill-opacity="0.302"><g transform="translate(760.381891, 549.975407)"><g><path d="M 178.84375 -239.796875 C 191.488281 -239.796875 201.796875 -238.21875 209.765625 -235.0625 C 217.742188 -231.90625 223.992188 -227.613281 228.515625 -222.1875 C 233.328125 -216.46875 236.863281 -209.09375 239.125 -200.0625 C 241.382812 -191.03125 242.515625 -178.835938 242.515625 -163.484375 L 242.515625 -42 C 242.515625 -29.351562 244.695312 -20.769531 249.0625 -16.25 C 253.425781 -11.738281 260.878906 -9.484375 271.421875 -9.484375 L 271.421875 0 C 265.703125 -0.300781 257.117188 -0.675781 245.671875 -1.125 C 234.234375 -1.582031 222.945312 -1.8125 211.8125 -1.8125 C 200.363281 -1.8125 189.144531 -1.582031 178.15625 -1.125 C 167.164062 -0.675781 158.8125 -0.300781 153.09375 0 L 153.09375 -9.484375 C 162.125 -9.484375 168.445312 -11.738281 172.0625 -16.25 C 175.675781 -20.769531 177.484375 -29.351562 177.484375 -42 L 177.484375 -182.453125 C 177.484375 -189.972656 176.726562 -196.519531 175.21875 -202.09375 C 173.71875 -207.664062 171.007812 -212.03125 167.09375 -215.1875 C 163.175781 -218.351562 157.304688 -219.9375 149.484375 -219.9375 C 141.359375 -219.9375 133.90625 -217.675781 127.125 -213.15625 C 120.351562 -208.644531 114.929688 -202.398438 110.859375 -194.421875 C 106.796875 -186.441406 104.765625 -177.484375 104.765625 -167.546875 L 104.765625 -42 C 104.765625 -29.351562 106.644531 -20.769531 110.40625 -16.25 C 114.175781 -11.738281 120.425781 -9.484375 129.15625 -9.484375 L 129.15625 0 C 123.738281 -0.300781 115.835938 -0.675781 105.453125 -1.125 C 95.066406 -1.582031 84.300781 -1.8125 73.15625 -1.8125 C 61.71875 -1.8125 49.976562 -1.582031 37.9375 -1.125 C 25.894531 -0.675781 16.863281 -0.300781 10.84375 0 L 10.84375 -9.484375 C 21.375 -9.484375 28.820312 -11.738281 33.1875 -16.25 C 37.550781 -20.769531 39.734375 -29.351562 39.734375 -42 L 39.734375 -184.25 C 39.734375 -197.800781 37.703125 -207.8125 33.640625 -214.28125 C 29.578125 -220.757812 21.976562 -224 10.84375 -224 L 10.84375 -233.484375 C 20.476562 -232.578125 29.8125 -232.125 38.84375 -232.125 C 51.488281 -232.125 63.304688 -232.648438 74.296875 -233.703125 C 85.285156 -234.753906 95.441406 -236.335938 104.765625 -238.453125 L 104.765625 -197.8125 C 112.296875 -213.164062 122.535156 -224 135.484375 -230.3125 C 148.429688 -236.632812 162.882812 -239.796875 178.84375 -239.796875 Z M 178.84375 -239.796875 "/></g></g></g><g fill="#e98b1b" fill-opacity="0.302"><g transform="translate(1021.409522, 549.975407)"><g><path d="M 233.03125 -353.609375 L 233.03125 -49.671875 C 233.03125 -36.128906 235.132812 -26.117188 239.34375 -19.640625 C 243.5625 -13.171875 251.09375 -9.9375 261.9375 -9.9375 L 261.9375 -0.453125 C 252.601562 -1.359375 243.269531 -1.8125 233.9375 -1.8125 C 221.289062 -1.8125 209.472656 -1.359375 198.484375 -0.453125 C 187.492188 0.453125 177.332031 2.109375 168 4.515625 L 168 -299.421875 C 168 -312.960938 165.96875 -322.96875 161.90625 -329.4375 C 157.84375 -335.914062 150.238281 -339.15625 139.09375 -339.15625 L 139.09375 -348.640625 C 148.726562 -347.734375 158.0625 -347.28125 167.09375 -347.28125 C 179.4375 -347.28125 191.175781 -347.804688 202.3125 -348.859375 C 213.457031 -349.921875 223.695312 -351.503906 233.03125 -353.609375 Z M 117.875 -239.796875 C 131.113281 -239.796875 142.773438 -237.613281 152.859375 -233.25 C 162.953125 -228.882812 170.859375 -221.585938 176.578125 -211.359375 L 171.15625 -206.390625 C 167.238281 -213.609375 162.046875 -218.796875 155.578125 -221.953125 C 149.109375 -225.117188 142.257812 -226.703125 135.03125 -226.703125 C 119.675781 -226.703125 107.484375 -217.742188 98.453125 -199.828125 C 89.421875 -181.921875 85.054688 -154.300781 85.359375 -116.96875 C 85.359375 -91.375 87.085938 -70.972656 90.546875 -55.765625 C 94.003906 -40.566406 98.96875 -29.65625 105.4375 -23.03125 C 111.914062 -16.40625 119.375 -13.09375 127.8125 -13.09375 C 138.039062 -13.09375 147.21875 -17.15625 155.34375 -25.28125 C 163.476562 -33.414062 167.847656 -44.40625 168.453125 -58.25 L 170.703125 -42.453125 C 166.191406 -26.492188 158.890625 -14.375 148.796875 -6.09375 C 138.710938 2.1875 125.546875 6.328125 109.296875 6.328125 C 91.523438 6.328125 75.640625 1.960938 61.640625 -6.765625 C 47.640625 -15.503906 36.722656 -28.976562 28.890625 -47.1875 C 21.066406 -65.40625 17.15625 -88.96875 17.15625 -117.875 C 17.15625 -145.269531 21.519531 -167.921875 30.25 -185.828125 C 38.988281 -203.742188 50.957031 -217.21875 66.15625 -226.25 C 81.363281 -235.28125 98.601562 -239.796875 117.875 -239.796875 Z M 117.875 -239.796875 "/></g></g></g><g fill="#e98b1b" fill-opacity="0.302"><g transform="translate(1275.211409, 549.975407)"><g><path d="M 69.546875 -350 C 82.191406 -350 92.203125 -346.910156 99.578125 -340.734375 C 106.960938 -334.566406 110.65625 -326.0625 110.65625 -315.21875 C 110.65625 -304.382812 106.960938 -295.878906 99.578125 -289.703125 C 92.203125 -283.535156 82.191406 -280.453125 69.546875 -280.453125 C 56.898438 -280.453125 46.890625 -283.535156 39.515625 -289.703125 C 32.140625 -295.878906 28.453125 -304.382812 28.453125 -315.21875 C 28.453125 -326.0625 32.140625 -334.566406 39.515625 -340.734375 C 46.890625 -346.910156 56.898438 -350 69.546875 -350 Z M 104.765625 -238.453125 L 104.765625 -42 C 104.765625 -29.351562 106.945312 -20.769531 111.3125 -16.25 C 115.6875 -11.738281 123.140625 -9.484375 133.671875 -9.484375 L 133.671875 0 C 128.253906 -0.300781 119.820312 -0.675781 108.375 -1.125 C 96.9375 -1.582031 85.347656 -1.8125 73.609375 -1.8125 C 61.867188 -1.8125 49.976562 -1.582031 37.9375 -1.125 C 25.894531 -0.675781 16.863281 -0.300781 10.84375 0 L 10.84375 -9.484375 C 21.375 -9.484375 28.820312 -11.738281 33.1875 -16.25 C 37.550781 -20.769531 39.734375 -29.351562 39.734375 -42 L 39.734375 -184.25 C 39.734375 -197.800781 37.703125 -207.8125 33.640625 -214.28125 C 29.578125 -220.757812 21.976562 -224 10.84375 -224 L 10.84375 -233.484375 C 20.476562 -232.578125 29.8125 -232.125 38.84375 -232.125 C 51.488281 -232.125 63.304688 -232.648438 74.296875 -233.703125 C 85.285156 -234.753906 95.441406 -236.335938 104.765625 -238.453125 Z M 104.765625 -238.453125 "/></g></g></g><g fill="#e98b1b" fill-opacity="0.302"><g transform="translate(1401.208612, 549.975407)"><g><path d="M 102.96875 -353.609375 L 102.96875 -42 C 102.96875 -29.351562 105.148438 -20.769531 109.515625 -16.25 C 113.878906 -11.738281 121.332031 -9.484375 131.875 -9.484375 L 131.875 0 C 126.15625 -0.300781 117.570312 -0.675781 106.125 -1.125 C 94.6875 -1.582031 83.097656 -1.8125 71.359375 -1.8125 C 59.609375 -1.8125 47.785156 -1.582031 35.890625 -1.125 C 24.003906 -0.675781 15.050781 -0.300781 9.03125 0 L 9.03125 -9.484375 C 19.570312 -9.484375 27.023438 -11.738281 31.390625 -16.25 C 35.753906 -20.769531 37.9375 -29.351562 37.9375 -42 L 37.9375 -299.421875 C 37.9375 -312.960938 35.898438 -322.96875 31.828125 -329.4375 C 27.765625 -335.914062 20.164062 -339.15625 9.03125 -339.15625 L 9.03125 -348.640625 C 18.664062 -347.734375 28 -347.28125 37.03125 -347.28125 C 49.375 -347.28125 61.113281 -347.804688 72.25 -348.859375 C 83.394531 -349.921875 93.632812 -351.503906 102.96875 -353.609375 Z M 102.96875 -353.609375 "/></g></g></g><g fill="#e98b1b" fill-opacity="0.502"><g transform="translate(38.163619, 547.485636)"><g><path d="M 128.25 -325.609375 C 146.019531 -325.609375 159.722656 -323.722656 169.359375 -319.953125 C 178.992188 -316.191406 187.269531 -312.207031 194.1875 -308 C 197.800781 -305.894531 200.738281 -304.3125 203 -303.25 C 205.257812 -302.195312 207.441406 -301.671875 209.546875 -301.671875 C 212.554688 -301.671875 214.738281 -303.328125 216.09375 -306.640625 C 217.445312 -309.953125 218.578125 -314.921875 219.484375 -321.546875 L 229.875 -321.546875 C 229.570312 -315.828125 229.191406 -308.976562 228.734375 -301 C 228.285156 -293.019531 227.984375 -282.554688 227.828125 -269.609375 C 227.679688 -256.660156 227.609375 -239.648438 227.609375 -218.578125 L 217.21875 -218.578125 C 216.019531 -234.234375 212.410156 -249.4375 206.390625 -264.1875 C 200.367188 -278.945312 191.863281 -291.066406 180.875 -300.546875 C 169.882812 -310.023438 156.410156 -314.765625 140.453125 -314.765625 C 125.992188 -314.765625 114.097656 -310.703125 104.765625 -302.578125 C 95.441406 -294.453125 90.78125 -283.160156 90.78125 -268.703125 C 90.78125 -256.660156 93.789062 -246.347656 99.8125 -237.765625 C 105.832031 -229.191406 114.632812 -220.835938 126.21875 -212.703125 C 137.8125 -204.578125 151.890625 -194.796875 168.453125 -183.359375 C 182.898438 -174.023438 195.84375 -164.691406 207.28125 -155.359375 C 218.726562 -146.023438 227.910156 -135.484375 234.828125 -123.734375 C 241.753906 -111.992188 245.21875 -97.992188 245.21875 -81.734375 C 245.21875 -61.867188 240.023438 -45.460938 229.640625 -32.515625 C 219.253906 -19.566406 205.628906 -9.851562 188.765625 -3.375 C 171.910156 3.09375 153.394531 6.328125 133.21875 6.328125 C 114.550781 6.328125 99.648438 4.519531 88.515625 0.90625 C 77.378906 -2.707031 68.046875 -6.472656 60.515625 -10.390625 C 53.890625 -14.597656 48.769531 -16.703125 45.15625 -16.703125 C 42.144531 -16.703125 39.960938 -15.046875 38.609375 -11.734375 C 37.253906 -8.429688 36.125 -3.46875 35.21875 3.15625 L 24.84375 3.15625 C 25.4375 -4.0625 25.804688 -12.488281 25.953125 -22.125 C 26.109375 -31.757812 26.257812 -44.328125 26.40625 -59.828125 C 26.5625 -75.335938 26.640625 -94.984375 26.640625 -118.765625 L 37.03125 -118.765625 C 38.238281 -98.898438 41.625 -80.3125 47.1875 -63 C 52.757812 -45.6875 61.34375 -31.757812 72.9375 -21.21875 C 84.53125 -10.6875 99.957031 -5.421875 119.21875 -5.421875 C 129.757812 -5.421875 139.171875 -7.300781 147.453125 -11.0625 C 155.734375 -14.820312 162.429688 -20.46875 167.546875 -28 C 172.660156 -35.53125 175.21875 -44.863281 175.21875 -56 C 175.21875 -68.644531 172.28125 -79.632812 166.40625 -88.96875 C 160.539062 -98.300781 152.566406 -107.03125 142.484375 -115.15625 C 132.398438 -123.289062 120.734375 -131.570312 107.484375 -140 C 93.328125 -149.332031 80.078125 -158.664062 67.734375 -168 C 55.390625 -177.332031 45.53125 -188.019531 38.15625 -200.0625 C 30.78125 -212.101562 27.09375 -226.40625 27.09375 -242.96875 C 27.09375 -261.9375 31.832031 -277.515625 41.3125 -289.703125 C 50.800781 -301.898438 63.296875 -310.929688 78.796875 -316.796875 C 94.304688 -322.671875 110.789062 -325.609375 128.25 -325.609375 Z M 128.25 -325.609375 "/></g></g></g><g fill="#e98b1b" fill-opacity="0.502"><g transform="translate(285.643044, 547.485636)"><g><path d="M 102.96875 -238.453125 L 102.96875 37.03125 C 102.96875 51.175781 106.578125 60.582031 113.796875 65.25 C 121.023438 69.914062 130.960938 72.25 143.609375 72.25 L 143.609375 81.734375 C 135.785156 81.441406 125.023438 81.066406 111.328125 80.609375 C 97.628906 80.160156 83.097656 79.9375 67.734375 79.9375 C 56.597656 79.9375 45.6875 80.160156 35 80.609375 C 24.3125 81.066406 16.257812 81.441406 10.84375 81.734375 L 10.84375 72.25 C 20.769531 72.25 27.765625 70.140625 31.828125 65.921875 C 35.898438 61.710938 37.9375 53.585938 37.9375 41.546875 L 37.9375 -184.25 C 37.9375 -197.800781 35.828125 -207.8125 31.609375 -214.28125 C 27.398438 -220.757812 19.875 -224 9.03125 -224 L 9.03125 -233.484375 C 18.664062 -232.578125 28 -232.125 37.03125 -232.125 C 49.375 -232.125 61.113281 -232.648438 72.25 -233.703125 C 83.394531 -234.753906 93.632812 -236.335938 102.96875 -238.453125 Z M 172.96875 -239.796875 C 188.320312 -239.796875 202.019531 -235.65625 214.0625 -227.375 C 226.101562 -219.101562 235.734375 -206.613281 242.953125 -189.90625 C 250.179688 -173.195312 253.796875 -152.347656 253.796875 -127.359375 C 253.796875 -105.378906 251.3125 -86.109375 246.34375 -69.546875 C 241.382812 -52.984375 234.3125 -39.054688 225.125 -27.765625 C 215.945312 -16.484375 204.957031 -7.976562 192.15625 -2.25 C 179.363281 3.46875 164.988281 6.328125 149.03125 6.328125 C 137.289062 6.328125 126.601562 4.289062 116.96875 0.21875 C 107.332031 -3.84375 99.957031 -9.632812 94.84375 -17.15625 L 99.359375 -23.03125 C 102.367188 -17.613281 106.65625 -13.398438 112.21875 -10.390625 C 117.789062 -7.378906 124.191406 -5.875 131.421875 -5.875 C 144.960938 -5.875 155.644531 -10.460938 163.46875 -19.640625 C 171.300781 -28.828125 176.945312 -41.773438 180.40625 -58.484375 C 183.875 -75.191406 185.609375 -95.140625 185.609375 -118.328125 C 185.609375 -144.210938 183.953125 -164.53125 180.640625 -179.28125 C 177.328125 -194.039062 172.8125 -204.582031 167.09375 -210.90625 C 161.375 -217.226562 154.453125 -220.390625 146.328125 -220.390625 C 135.484375 -220.390625 125.617188 -216.171875 116.734375 -207.734375 C 107.859375 -199.304688 102.816406 -187.265625 101.609375 -171.609375 L 99.359375 -187.421875 C 104.773438 -204.578125 114.03125 -217.59375 127.125 -226.46875 C 140.21875 -235.351562 155.5 -239.796875 172.96875 -239.796875 Z M 172.96875 -239.796875 "/></g></g></g><g fill="#e98b1b" fill-opacity="0.502"><g transform="translate(540.348204, 547.485636)"><g><path d="M 127.359375 -239.796875 C 153.847656 -239.796875 174.617188 -231.96875 189.671875 -216.3125 C 204.722656 -200.664062 212.25 -175.078125 212.25 -139.546875 L 63.671875 -139.546875 L 62.78125 -148.125 L 155.359375 -148.125 C 155.660156 -162.875 154.753906 -176.492188 152.640625 -188.984375 C 150.535156 -201.484375 147.222656 -211.5 142.703125 -219.03125 C 138.191406 -226.5625 132.171875 -230.328125 124.640625 -230.328125 C 114.109375 -230.328125 105.148438 -223.703125 97.765625 -210.453125 C 90.390625 -197.203125 85.953125 -175.222656 84.453125 -144.515625 L 85.8125 -141.8125 C 85.507812 -138.195312 85.28125 -134.429688 85.125 -130.515625 C 84.976562 -126.597656 84.90625 -122.535156 84.90625 -118.328125 C 84.90625 -97.546875 87.835938 -80.679688 93.703125 -67.734375 C 99.578125 -54.796875 107.03125 -45.390625 116.0625 -39.515625 C 125.09375 -33.640625 134.273438 -30.703125 143.609375 -30.703125 C 149.929688 -30.703125 156.476562 -31.679688 163.25 -33.640625 C 170.03125 -35.597656 176.878906 -39.210938 183.796875 -44.484375 C 190.722656 -49.753906 197.195312 -57.207031 203.21875 -66.84375 L 211.359375 -64.125 C 207.742188 -52.6875 202.019531 -41.546875 194.1875 -30.703125 C 186.363281 -19.867188 176.429688 -10.988281 164.390625 -4.0625 C 152.347656 2.863281 137.894531 6.328125 121.03125 6.328125 C 100.5625 6.328125 82.5 1.960938 66.84375 -6.765625 C 51.1875 -15.503906 38.914062 -28.753906 30.03125 -46.515625 C 21.144531 -64.273438 16.703125 -86.851562 16.703125 -114.25 C 16.703125 -142.25 21.441406 -165.582031 30.921875 -184.25 C 40.410156 -202.914062 53.507812 -216.835938 70.21875 -226.015625 C 86.9375 -235.203125 105.984375 -239.796875 127.359375 -239.796875 Z M 127.359375 -239.796875 "/></g></g></g><g fill="#e98b1b" fill-opacity="0.502"><g transform="translate(751.69903, 547.485636)"><g><path d="M 178.84375 -239.796875 C 191.488281 -239.796875 201.796875 -238.21875 209.765625 -235.0625 C 217.742188 -231.90625 223.992188 -227.613281 228.515625 -222.1875 C 233.328125 -216.46875 236.863281 -209.09375 239.125 -200.0625 C 241.382812 -191.03125 242.515625 -178.835938 242.515625 -163.484375 L 242.515625 -42 C 242.515625 -29.351562 244.695312 -20.769531 249.0625 -16.25 C 253.425781 -11.738281 260.878906 -9.484375 271.421875 -9.484375 L 271.421875 0 C 265.703125 -0.300781 257.117188 -0.675781 245.671875 -1.125 C 234.234375 -1.582031 222.945312 -1.8125 211.8125 -1.8125 C 200.363281 -1.8125 189.144531 -1.582031 178.15625 -1.125 C 167.164062 -0.675781 158.8125 -0.300781 153.09375 0 L 153.09375 -9.484375 C 162.125 -9.484375 168.445312 -11.738281 172.0625 -16.25 C 175.675781 -20.769531 177.484375 -29.351562 177.484375 -42 L 177.484375 -182.453125 C 177.484375 -189.972656 176.726562 -196.519531 175.21875 -202.09375 C 173.71875 -207.664062 171.007812 -212.03125 167.09375 -215.1875 C 163.175781 -218.351562 157.304688 -219.9375 149.484375 -219.9375 C 141.359375 -219.9375 133.90625 -217.675781 127.125 -213.15625 C 120.351562 -208.644531 114.929688 -202.398438 110.859375 -194.421875 C 106.796875 -186.441406 104.765625 -177.484375 104.765625 -167.546875 L 104.765625 -42 C 104.765625 -29.351562 106.644531 -20.769531 110.40625 -16.25 C 114.175781 -11.738281 120.425781 -9.484375 129.15625 -9.484375 L 129.15625 0 C 123.738281 -0.300781 115.835938 -0.675781 105.453125 -1.125 C 95.066406 -1.582031 84.300781 -1.8125 73.15625 -1.8125 C 61.71875 -1.8125 49.976562 -1.582031 37.9375 -1.125 C 25.894531 -0.675781 16.863281 -0.300781 10.84375 0 L 10.84375 -9.484375 C 21.375 -9.484375 28.820312 -11.738281 33.1875 -16.25 C 37.550781 -20.769531 39.734375 -29.351562 39.734375 -42 L 39.734375 -184.25 C 39.734375 -197.800781 37.703125 -207.8125 33.640625 -214.28125 C 29.578125 -220.757812 21.976562 -224 10.84375 -224 L 10.84375 -233.484375 C 20.476562 -232.578125 29.8125 -232.125 38.84375 -232.125 C 51.488281 -232.125 63.304688 -232.648438 74.296875 -233.703125 C 85.285156 -234.753906 95.441406 -236.335938 104.765625 -238.453125 L 104.765625 -197.8125 C 112.296875 -213.164062 122.535156 -224 135.484375 -230.3125 C 148.429688 -236.632812 162.882812 -239.796875 178.84375 -239.796875 Z M 178.84375 -239.796875 "/></g></g></g><g fill="#e98b1b" fill-opacity="0.502"><g transform="translate(1012.726661, 547.485636)"><g><path d="M 233.03125 -353.609375 L 233.03125 -49.671875 C 233.03125 -36.128906 235.132812 -26.117188 239.34375 -19.640625 C 243.5625 -13.171875 251.09375 -9.9375 261.9375 -9.9375 L 261.9375 -0.453125 C 252.601562 -1.359375 243.269531 -1.8125 233.9375 -1.8125 C 221.289062 -1.8125 209.472656 -1.359375 198.484375 -0.453125 C 187.492188 0.453125 177.332031 2.109375 168 4.515625 L 168 -299.421875 C 168 -312.960938 165.96875 -322.96875 161.90625 -329.4375 C 157.84375 -335.914062 150.238281 -339.15625 139.09375 -339.15625 L 139.09375 -348.640625 C 148.726562 -347.734375 158.0625 -347.28125 167.09375 -347.28125 C 179.4375 -347.28125 191.175781 -347.804688 202.3125 -348.859375 C 213.457031 -349.921875 223.695312 -351.503906 233.03125 -353.609375 Z M 117.875 -239.796875 C 131.113281 -239.796875 142.773438 -237.613281 152.859375 -233.25 C 162.953125 -228.882812 170.859375 -221.585938 176.578125 -211.359375 L 171.15625 -206.390625 C 167.238281 -213.609375 162.046875 -218.796875 155.578125 -221.953125 C 149.109375 -225.117188 142.257812 -226.703125 135.03125 -226.703125 C 119.675781 -226.703125 107.484375 -217.742188 98.453125 -199.828125 C 89.421875 -181.921875 85.054688 -154.300781 85.359375 -116.96875 C 85.359375 -91.375 87.085938 -70.972656 90.546875 -55.765625 C 94.003906 -40.566406 98.96875 -29.65625 105.4375 -23.03125 C 111.914062 -16.40625 119.375 -13.09375 127.8125 -13.09375 C 138.039062 -13.09375 147.21875 -17.15625 155.34375 -25.28125 C 163.476562 -33.414062 167.847656 -44.40625 168.453125 -58.25 L 170.703125 -42.453125 C 166.191406 -26.492188 158.890625 -14.375 148.796875 -6.09375 C 138.710938 2.1875 125.546875 6.328125 109.296875 6.328125 C 91.523438 6.328125 75.640625 1.960938 61.640625 -6.765625 C 47.640625 -15.503906 36.722656 -28.976562 28.890625 -47.1875 C 21.066406 -65.40625 17.15625 -88.96875 17.15625 -117.875 C 17.15625 -145.269531 21.519531 -167.921875 30.25 -185.828125 C 38.988281 -203.742188 50.957031 -217.21875 66.15625 -226.25 C 81.363281 -235.28125 98.601562 -239.796875 117.875 -239.796875 Z M 117.875 -239.796875 "/></g></g></g><g fill="#e98b1b" fill-opacity="0.502"><g transform="translate(1266.528548, 547.485636)"><g><path d="M 69.546875 -350 C 82.191406 -350 92.203125 -346.910156 99.578125 -340.734375 C 106.960938 -334.566406 110.65625 -326.0625 110.65625 -315.21875 C 110.65625 -304.382812 106.960938 -295.878906 99.578125 -289.703125 C 92.203125 -283.535156 82.191406 -280.453125 69.546875 -280.453125 C 56.898438 -280.453125 46.890625 -283.535156 39.515625 -289.703125 C 32.140625 -295.878906 28.453125 -304.382812 28.453125 -315.21875 C 28.453125 -326.0625 32.140625 -334.566406 39.515625 -340.734375 C 46.890625 -346.910156 56.898438 -350 69.546875 -350 Z M 104.765625 -238.453125 L 104.765625 -42 C 104.765625 -29.351562 106.945312 -20.769531 111.3125 -16.25 C 115.6875 -11.738281 123.140625 -9.484375 133.671875 -9.484375 L 133.671875 0 C 128.253906 -0.300781 119.820312 -0.675781 108.375 -1.125 C 96.9375 -1.582031 85.347656 -1.8125 73.609375 -1.8125 C 61.867188 -1.8125 49.976562 -1.582031 37.9375 -1.125 C 25.894531 -0.675781 16.863281 -0.300781 10.84375 0 L 10.84375 -9.484375 C 21.375 -9.484375 28.820312 -11.738281 33.1875 -16.25 C 37.550781 -20.769531 39.734375 -29.351562 39.734375 -42 L 39.734375 -184.25 C 39.734375 -197.800781 37.703125 -207.8125 33.640625 -214.28125 C 29.578125 -220.757812 21.976562 -224 10.84375 -224 L 10.84375 -233.484375 C 20.476562 -232.578125 29.8125 -232.125 38.84375 -232.125 C 51.488281 -232.125 63.304688 -232.648438 74.296875 -233.703125 C 85.285156 -234.753906 95.441406 -236.335938 104.765625 -238.453125 Z M 104.765625 -238.453125 "/></g></g></g><g fill="#e98b1b" fill-opacity="0.502"><g transform="translate(1392.525751, 547.485636)"><g><path d="M 102.96875 -353.609375 L 102.96875 -42 C 102.96875 -29.351562 105.148438 -20.769531 109.515625 -16.25 C 113.878906 -11.738281 121.332031 -9.484375 131.875 -9.484375 L 131.875 0 C 126.15625 -0.300781 117.570312 -0.675781 106.125 -1.125 C 94.6875 -1.582031 83.097656 -1.8125 71.359375 -1.8125 C 59.609375 -1.8125 47.785156 -1.582031 35.890625 -1.125 C 24.003906 -0.675781 15.050781 -0.300781 9.03125 0 L 9.03125 -9.484375 C 19.570312 -9.484375 27.023438 -11.738281 31.390625 -16.25 C 35.753906 -20.769531 37.9375 -29.351562 37.9375 -42 L 37.9375 -299.421875 C 37.9375 -312.960938 35.898438 -322.96875 31.828125 -329.4375 C 27.765625 -335.914062 20.164062 -339.15625 9.03125 -339.15625 L 9.03125 -348.640625 C 18.664062 -347.734375 28 -347.28125 37.03125 -347.28125 C 49.375 -347.28125 61.113281 -347.804688 72.25 -348.859375 C 83.394531 -349.921875 93.632812 -351.503906 102.96875 -353.609375 Z M 102.96875 -353.609375 "/></g></g></g><g fill="#ffd700" fill-opacity="1"><g transform="translate(29.480758, 544.995866)"><g><path d="M 128.25 -325.609375 C 146.019531 -325.609375 159.722656 -323.722656 169.359375 -319.953125 C 178.992188 -316.191406 187.269531 -312.207031 194.1875 -308 C 197.800781 -305.894531 200.738281 -304.3125 203 -303.25 C 205.257812 -302.195312 207.441406 -301.671875 209.546875 -301.671875 C 212.554688 -301.671875 214.738281 -303.328125 216.09375 -306.640625 C 217.445312 -309.953125 218.578125 -314.921875 219.484375 -321.546875 L 229.875 -321.546875 C 229.570312 -315.828125 229.191406 -308.976562 228.734375 -301 C 228.285156 -293.019531 227.984375 -282.554688 227.828125 -269.609375 C 227.679688 -256.660156 227.609375 -239.648438 227.609375 -218.578125 L 217.21875 -218.578125 C 216.019531 -234.234375 212.410156 -249.4375 206.390625 -264.1875 C 200.367188 -278.945312 191.863281 -291.066406 180.875 -300.546875 C 169.882812 -310.023438 156.410156 -314.765625 140.453125 -314.765625 C 125.992188 -314.765625 114.097656 -310.703125 104.765625 -302.578125 C 95.441406 -294.453125 90.78125 -283.160156 90.78125 -268.703125 C 90.78125 -256.660156 93.789062 -246.347656 99.8125 -237.765625 C 105.832031 -229.191406 114.632812 -220.835938 126.21875 -212.703125 C 137.8125 -204.578125 151.890625 -194.796875 168.453125 -183.359375 C 182.898438 -174.023438 195.84375 -164.691406 207.28125 -155.359375 C 218.726562 -146.023438 227.910156 -135.484375 234.828125 -123.734375 C 241.753906 -111.992188 245.21875 -97.992188 245.21875 -81.734375 C 245.21875 -61.867188 240.023438 -45.460938 229.640625 -32.515625 C 219.253906 -19.566406 205.628906 -9.851562 188.765625 -3.375 C 171.910156 3.09375 153.394531 6.328125 133.21875 6.328125 C 114.550781 6.328125 99.648438 4.519531 88.515625 0.90625 C 77.378906 -2.707031 68.046875 -6.472656 60.515625 -10.390625 C 53.890625 -14.597656 48.769531 -16.703125 45.15625 -16.703125 C 42.144531 -16.703125 39.960938 -15.046875 38.609375 -11.734375 C 37.253906 -8.429688 36.125 -3.46875 35.21875 3.15625 L 24.84375 3.15625 C 25.4375 -4.0625 25.804688 -12.488281 25.953125 -22.125 C 26.109375 -31.757812 26.257812 -44.328125 26.40625 -59.828125 C 26.5625 -75.335938 26.640625 -94.984375 26.640625 -118.765625 L 37.03125 -118.765625 C 38.238281 -98.898438 41.625 -80.3125 47.1875 -63 C 52.757812 -45.6875 61.34375 -31.757812 72.9375 -21.21875 C 84.53125 -10.6875 99.957031 -5.421875 119.21875 -5.421875 C 129.757812 -5.421875 139.171875 -7.300781 147.453125 -11.0625 C 155.734375 -14.820312 162.429688 -20.46875 167.546875 -28 C 172.660156 -35.53125 175.21875 -44.863281 175.21875 -56 C 175.21875 -68.644531 172.28125 -79.632812 166.40625 -88.96875 C 160.539062 -98.300781 152.566406 -107.03125 142.484375 -115.15625 C 132.398438 -123.289062 120.734375 -131.570312 107.484375 -140 C 93.328125 -149.332031 80.078125 -158.664062 67.734375 -168 C 55.390625 -177.332031 45.53125 -188.019531 38.15625 -200.0625 C 30.78125 -212.101562 27.09375 -226.40625 27.09375 -242.96875 C 27.09375 -261.9375 31.832031 -277.515625 41.3125 -289.703125 C 50.800781 -301.898438 63.296875 -310.929688 78.796875 -316.796875 C 94.304688 -322.671875 110.789062 -325.609375 128.25 -325.609375 Z M 128.25 -325.609375 "/></g></g></g><g fill="#ffd700" fill-opacity="1"><g transform="translate(276.960183, 544.995866)"><g><path d="M 102.96875 -238.453125 L 102.96875 37.03125 C 102.96875 51.175781 106.578125 60.582031 113.796875 65.25 C 121.023438 69.914062 130.960938 72.25 143.609375 72.25 L 143.609375 81.734375 C 135.785156 81.441406 125.023438 81.066406 111.328125 80.609375 C 97.628906 80.160156 83.097656 79.9375 67.734375 79.9375 C 56.597656 79.9375 45.6875 80.160156 35 80.609375 C 24.3125 81.066406 16.257812 81.441406 10.84375 81.734375 L 10.84375 72.25 C 20.769531 72.25 27.765625 70.140625 31.828125 65.921875 C 35.898438 61.710938 37.9375 53.585938 37.9375 41.546875 L 37.9375 -184.25 C 37.9375 -197.800781 35.828125 -207.8125 31.609375 -214.28125 C 27.398438 -220.757812 19.875 -224 9.03125 -224 L 9.03125 -233.484375 C 18.664062 -232.578125 28 -232.125 37.03125 -232.125 C 49.375 -232.125 61.113281 -232.648438 72.25 -233.703125 C 83.394531 -234.753906 93.632812 -236.335938 102.96875 -238.453125 Z M 172.96875 -239.796875 C 188.320312 -239.796875 202.019531 -235.65625 214.0625 -227.375 C 226.101562 -219.101562 235.734375 -206.613281 242.953125 -189.90625 C 250.179688 -173.195312 253.796875 -152.347656 253.796875 -127.359375 C 253.796875 -105.378906 251.3125 -86.109375 246.34375 -69.546875 C 241.382812 -52.984375 234.3125 -39.054688 225.125 -27.765625 C 215.945312 -16.484375 204.957031 -7.976562 192.15625 -2.25 C 179.363281 3.46875 164.988281 6.328125 149.03125 6.328125 C 137.289062 6.328125 126.601562 4.289062 116.96875 0.21875 C 107.332031 -3.84375 99.957031 -9.632812 94.84375 -17.15625 L 99.359375 -23.03125 C 102.367188 -17.613281 106.65625 -13.398438 112.21875 -10.390625 C 117.789062 -7.378906 124.191406 -5.875 131.421875 -5.875 C 144.960938 -5.875 155.644531 -10.460938 163.46875 -19.640625 C 171.300781 -28.828125 176.945312 -41.773438 180.40625 -58.484375 C 183.875 -75.191406 185.609375 -95.140625 185.609375 -118.328125 C 185.609375 -144.210938 183.953125 -164.53125 180.640625 -179.28125 C 177.328125 -194.039062 172.8125 -204.582031 167.09375 -210.90625 C 161.375 -217.226562 154.453125 -220.390625 146.328125 -220.390625 C 135.484375 -220.390625 125.617188 -216.171875 116.734375 -207.734375 C 107.859375 -199.304688 102.816406 -187.265625 101.609375 -171.609375 L 99.359375 -187.421875 C 104.773438 -204.578125 114.03125 -217.59375 127.125 -226.46875 C 140.21875 -235.351562 155.5 -239.796875 172.96875 -239.796875 Z M 172.96875 -239.796875 "/></g></g></g><g fill="#ffd700" fill-opacity="1"><g transform="translate(531.665343, 544.995866)"><g><path d="M 127.359375 -239.796875 C 153.847656 -239.796875 174.617188 -231.96875 189.671875 -216.3125 C 204.722656 -200.664062 212.25 -175.078125 212.25 -139.546875 L 63.671875 -139.546875 L 62.78125 -148.125 L 155.359375 -148.125 C 155.660156 -162.875 154.753906 -176.492188 152.640625 -188.984375 C 150.535156 -201.484375 147.222656 -211.5 142.703125 -219.03125 C 138.191406 -226.5625 132.171875 -230.328125 124.640625 -230.328125 C 114.109375 -230.328125 105.148438 -223.703125 97.765625 -210.453125 C 90.390625 -197.203125 85.953125 -175.222656 84.453125 -144.515625 L 85.8125 -141.8125 C 85.507812 -138.195312 85.28125 -134.429688 85.125 -130.515625 C 84.976562 -126.597656 84.90625 -122.535156 84.90625 -118.328125 C 84.90625 -97.546875 87.835938 -80.679688 93.703125 -67.734375 C 99.578125 -54.796875 107.03125 -45.390625 116.0625 -39.515625 C 125.09375 -33.640625 134.273438 -30.703125 143.609375 -30.703125 C 149.929688 -30.703125 156.476562 -31.679688 163.25 -33.640625 C 170.03125 -35.597656 176.878906 -39.210938 183.796875 -44.484375 C 190.722656 -49.753906 197.195312 -57.207031 203.21875 -66.84375 L 211.359375 -64.125 C 207.742188 -52.6875 202.019531 -41.546875 194.1875 -30.703125 C 186.363281 -19.867188 176.429688 -10.988281 164.390625 -4.0625 C 152.347656 2.863281 137.894531 6.328125 121.03125 6.328125 C 100.5625 6.328125 82.5 1.960938 66.84375 -6.765625 C 51.1875 -15.503906 38.914062 -28.753906 30.03125 -46.515625 C 21.144531 -64.273438 16.703125 -86.851562 16.703125 -114.25 C 16.703125 -142.25 21.441406 -165.582031 30.921875 -184.25 C 40.410156 -202.914062 53.507812 -216.835938 70.21875 -226.015625 C 86.9375 -235.203125 105.984375 -239.796875 127.359375 -239.796875 Z M 127.359375 -239.796875 "/></g></g></g><g fill="#ffd700" fill-opacity="1"><g transform="translate(743.016169, 544.995866)"><g><path d="M 178.84375 -239.796875 C 191.488281 -239.796875 201.796875 -238.21875 209.765625 -235.0625 C 217.742188 -231.90625 223.992188 -227.613281 228.515625 -222.1875 C 233.328125 -216.46875 236.863281 -209.09375 239.125 -200.0625 C 241.382812 -191.03125 242.515625 -178.835938 242.515625 -163.484375 L 242.515625 -42 C 242.515625 -29.351562 244.695312 -20.769531 249.0625 -16.25 C 253.425781 -11.738281 260.878906 -9.484375 271.421875 -9.484375 L 271.421875 0 C 265.703125 -0.300781 257.117188 -0.675781 245.671875 -1.125 C 234.234375 -1.582031 222.945312 -1.8125 211.8125 -1.8125 C 200.363281 -1.8125 189.144531 -1.582031 178.15625 -1.125 C 167.164062 -0.675781 158.8125 -0.300781 153.09375 0 L 153.09375 -9.484375 C 162.125 -9.484375 168.445312 -11.738281 172.0625 -16.25 C 175.675781 -20.769531 177.484375 -29.351562 177.484375 -42 L 177.484375 -182.453125 C 177.484375 -189.972656 176.726562 -196.519531 175.21875 -202.09375 C 173.71875 -207.664062 171.007812 -212.03125 167.09375 -215.1875 C 163.175781 -218.351562 157.304688 -219.9375 149.484375 -219.9375 C 141.359375 -219.9375 133.90625 -217.675781 127.125 -213.15625 C 120.351562 -208.644531 114.929688 -202.398438 110.859375 -194.421875 C 106.796875 -186.441406 104.765625 -177.484375 104.765625 -167.546875 L 104.765625 -42 C 104.765625 -29.351562 106.644531 -20.769531 110.40625 -16.25 C 114.175781 -11.738281 120.425781 -9.484375 129.15625 -9.484375 L 129.15625 0 C 123.738281 -0.300781 115.835938 -0.675781 105.453125 -1.125 C 95.066406 -1.582031 84.300781 -1.8125 73.15625 -1.8125 C 61.71875 -1.8125 49.976562 -1.582031 37.9375 -1.125 C 25.894531 -0.675781 16.863281 -0.300781 10.84375 0 L 10.84375 -9.484375 C 21.375 -9.484375 28.820312 -11.738281 33.1875 -16.25 C 37.550781 -20.769531 39.734375 -29.351562 39.734375 -42 L 39.734375 -184.25 C 39.734375 -197.800781 37.703125 -207.8125 33.640625 -214.28125 C 29.578125 -220.757812 21.976562 -224 10.84375 -224 L 10.84375 -233.484375 C 20.476562 -232.578125 29.8125 -232.125 38.84375 -232.125 C 51.488281 -232.125 63.304688 -232.648438 74.296875 -233.703125 C 85.285156 -234.753906 95.441406 -236.335938 104.765625 -238.453125 L 104.765625 -197.8125 C 112.296875 -213.164062 122.535156 -224 135.484375 -230.3125 C 148.429688 -236.632812 162.882812 -239.796875 178.84375 -239.796875 Z M 178.84375 -239.796875 "/></g></g></g><g fill="#ffd700" fill-opacity="1"><g transform="translate(1004.043799, 544.995866)"><g><path d="M 233.03125 -353.609375 L 233.03125 -49.671875 C 233.03125 -36.128906 235.132812 -26.117188 239.34375 -19.640625 C 243.5625 -13.171875 251.09375 -9.9375 261.9375 -9.9375 L 261.9375 -0.453125 C 252.601562 -1.359375 243.269531 -1.8125 233.9375 -1.8125 C 221.289062 -1.8125 209.472656 -1.359375 198.484375 -0.453125 C 187.492188 0.453125 177.332031 2.109375 168 4.515625 L 168 -299.421875 C 168 -312.960938 165.96875 -322.96875 161.90625 -329.4375 C 157.84375 -335.914062 150.238281 -339.15625 139.09375 -339.15625 L 139.09375 -348.640625 C 148.726562 -347.734375 158.0625 -347.28125 167.09375 -347.28125 C 179.4375 -347.28125 191.175781 -347.804688 202.3125 -348.859375 C 213.457031 -349.921875 223.695312 -351.503906 233.03125 -353.609375 Z M 117.875 -239.796875 C 131.113281 -239.796875 142.773438 -237.613281 152.859375 -233.25 C 162.953125 -228.882812 170.859375 -221.585938 176.578125 -211.359375 L 171.15625 -206.390625 C 167.238281 -213.609375 162.046875 -218.796875 155.578125 -221.953125 C 149.109375 -225.117188 142.257812 -226.703125 135.03125 -226.703125 C 119.675781 -226.703125 107.484375 -217.742188 98.453125 -199.828125 C 89.421875 -181.921875 85.054688 -154.300781 85.359375 -116.96875 C 85.359375 -91.375 87.085938 -70.972656 90.546875 -55.765625 C 94.003906 -40.566406 98.96875 -29.65625 105.4375 -23.03125 C 111.914062 -16.40625 119.375 -13.09375 127.8125 -13.09375 C 138.039062 -13.09375 147.21875 -17.15625 155.34375 -25.28125 C 163.476562 -33.414062 167.847656 -44.40625 168.453125 -58.25 L 170.703125 -42.453125 C 166.191406 -26.492188 158.890625 -14.375 148.796875 -6.09375 C 138.710938 2.1875 125.546875 6.328125 109.296875 6.328125 C 91.523438 6.328125 75.640625 1.960938 61.640625 -6.765625 C 47.640625 -15.503906 36.722656 -28.976562 28.890625 -47.1875 C 21.066406 -65.40625 17.15625 -88.96875 17.15625 -117.875 C 17.15625 -145.269531 21.519531 -167.921875 30.25 -185.828125 C 38.988281 -203.742188 50.957031 -217.21875 66.15625 -226.25 C 81.363281 -235.28125 98.601562 -239.796875 117.875 -239.796875 Z M 117.875 -239.796875 "/></g></g></g><g fill="#ffd700" fill-opacity="1"><g transform="translate(1257.845687, 544.995866)"><g><path d="M 69.546875 -350 C 82.191406 -350 92.203125 -346.910156 99.578125 -340.734375 C 106.960938 -334.566406 110.65625 -326.0625 110.65625 -315.21875 C 110.65625 -304.382812 106.960938 -295.878906 99.578125 -289.703125 C 92.203125 -283.535156 82.191406 -280.453125 69.546875 -280.453125 C 56.898438 -280.453125 46.890625 -283.535156 39.515625 -289.703125 C 32.140625 -295.878906 28.453125 -304.382812 28.453125 -315.21875 C 28.453125 -326.0625 32.140625 -334.566406 39.515625 -340.734375 C 46.890625 -346.910156 56.898438 -350 69.546875 -350 Z M 104.765625 -238.453125 L 104.765625 -42 C 104.765625 -29.351562 106.945312 -20.769531 111.3125 -16.25 C 115.6875 -11.738281 123.140625 -9.484375 133.671875 -9.484375 L 133.671875 0 C 128.253906 -0.300781 119.820312 -0.675781 108.375 -1.125 C 96.9375 -1.582031 85.347656 -1.8125 73.609375 -1.8125 C 61.867188 -1.8125 49.976562 -1.582031 37.9375 -1.125 C 25.894531 -0.675781 16.863281 -0.300781 10.84375 0 L 10.84375 -9.484375 C 21.375 -9.484375 28.820312 -11.738281 33.1875 -16.25 C 37.550781 -20.769531 39.734375 -29.351562 39.734375 -42 L 39.734375 -184.25 C 39.734375 -197.800781 37.703125 -207.8125 33.640625 -214.28125 C 29.578125 -220.757812 21.976562 -224 10.84375 -224 L 10.84375 -233.484375 C 20.476562 -232.578125 29.8125 -232.125 38.84375 -232.125 C 51.488281 -232.125 63.304688 -232.648438 74.296875 -233.703125 C 85.285156 -234.753906 95.441406 -236.335938 104.765625 -238.453125 Z M 104.765625 -238.453125 "/></g></g></g><g fill="#ffd700" fill-opacity="1"><g transform="translate(1383.84289, 544.995866)"><g><path d="M 102.96875 -353.609375 L 102.96875 -42 C 102.96875 -29.351562 105.148438 -20.769531 109.515625 -16.25 C 113.878906 -11.738281 121.332031 -9.484375 131.875 -9.484375 L 131.875 0 C 126.15625 -0.300781 117.570312 -0.675781 106.125 -1.125 C 94.6875 -1.582031 83.097656 -1.8125 71.359375 -1.8125 C 59.609375 -1.8125 47.785156 -1.582031 35.890625 -1.125 C 24.003906 -0.675781 15.050781 -0.300781 9.03125 0 L 9.03125 -9.484375 C 19.570312 -9.484375 27.023438 -11.738281 31.390625 -16.25 C 35.753906 -20.769531 37.9375 -29.351562 37.9375 -42 L 37.9375 -299.421875 C 37.9375 -312.960938 35.898438 -322.96875 31.828125 -329.4375 C 27.765625 -335.914062 20.164062 -339.15625 9.03125 -339.15625 L 9.03125 -348.640625 C 18.664062 -347.734375 28 -347.28125 37.03125 -347.28125 C 49.375 -347.28125 61.113281 -347.804688 72.25 -348.859375 C 83.394531 -349.921875 93.632812 -351.503906 102.96875 -353.609375 Z M 102.96875 -353.609375 "/></g></g></g><g fill="#e98b1b" fill-opacity="0.302"><g transform="translate(1525.453272, 549.975407)"><g/></g></g><g fill="#e98b1b" fill-opacity="0.302"><g transform="translate(1614.418675, 549.975407)"><g/></g></g><g fill="#e98b1b" fill-opacity="0.302"><g transform="translate(1703.384077, 549.975407)"><g/></g></g><g fill="#e98b1b" fill-opacity="0.502"><g transform="translate(1516.770411, 547.485636)"><g/></g></g><g fill="#e98b1b" fill-opacity="0.502"><g transform="translate(1605.735814, 547.485636)"><g/></g></g><g fill="#e98b1b" fill-opacity="0.502"><g transform="translate(1694.701216, 547.485636)"><g/></g></g><g fill="#ffd700" fill-opacity="1"><g transform="translate(1508.08755, 544.995866)"><g/></g></g><g fill="#ffd700" fill-opacity="1"><g transform="translate(1597.052953, 544.995866)"><g/></g></g><g fill="#ffd700" fill-opacity="1"><g transform="translate(1686.018355, 544.995866)"><g/></g></g><g fill="#e98b1b" fill-opacity="0.302"><g transform="translate(1792.405008, 549.975407)"><g><path d="M 119.671875 -233.484375 L 119.671875 -224 C 113.046875 -224 107.25 -223.617188 102.28125 -222.859375 C 97.320312 -222.109375 94.015625 -219.925781 92.359375 -216.3125 C 90.703125 -212.707031 91.226562 -206.835938 93.9375 -198.703125 L 136.84375 -64.578125 L 130.96875 -58.25 L 183.8125 -233.9375 L 192.84375 -229.875 L 123.734375 0.90625 C 118.921875 0.601562 114.101562 0.453125 109.28125 0.453125 C 104.46875 0.453125 99.503906 0.601562 94.390625 0.90625 L 23.03125 -198.703125 C 18.8125 -210.742188 14.21875 -217.96875 9.25 -220.375 C 4.289062 -222.789062 0.15625 -224 -3.15625 -224 L -3.15625 -233.484375 C 6.476562 -232.578125 16.488281 -231.894531 26.875 -231.4375 C 37.257812 -230.988281 48.625 -230.765625 60.96875 -230.765625 C 70.300781 -230.765625 80.160156 -231.066406 90.546875 -231.671875 C 100.929688 -232.273438 110.640625 -232.878906 119.671875 -233.484375 Z M 355.421875 -233.484375 L 355.421875 -224.453125 C 349.703125 -222.941406 344.28125 -219.476562 339.15625 -214.0625 C 334.039062 -208.644531 329.222656 -199.160156 324.703125 -185.609375 L 264.640625 0.90625 C 259.828125 0.601562 254.9375 0.453125 249.96875 0.453125 C 245 0.453125 240.101562 0.601562 235.28125 0.90625 L 171.609375 -172.96875 L 183.8125 -233.9375 C 189.226562 -233.632812 194.71875 -233.554688 200.28125 -233.703125 C 205.851562 -233.859375 211.347656 -233.9375 216.765625 -233.9375 L 278.640625 -51.484375 L 273.671875 -56.453125 L 303.9375 -152.1875 C 309.050781 -168.75 311.003906 -182.144531 309.796875 -192.375 C 308.597656 -202.613281 304.988281 -210.289062 298.96875 -215.40625 C 292.945312 -220.53125 284.816406 -223.546875 274.578125 -224.453125 L 274.578125 -233.484375 C 279.390625 -233.179688 284.582031 -232.953125 290.15625 -232.796875 C 295.726562 -232.648438 301.296875 -232.5 306.859375 -232.34375 C 312.429688 -232.195312 317.175781 -232.125 321.09375 -232.125 C 327.113281 -232.125 333.359375 -232.273438 339.828125 -232.578125 C 346.304688 -232.878906 351.503906 -233.179688 355.421875 -233.484375 Z M 355.421875 -233.484375 "/></g></g></g><g fill="#e98b1b" fill-opacity="0.502"><g transform="translate(1783.722147, 547.485636)"><g><path d="M 119.671875 -233.484375 L 119.671875 -224 C 113.046875 -224 107.25 -223.617188 102.28125 -222.859375 C 97.320312 -222.109375 94.015625 -219.925781 92.359375 -216.3125 C 90.703125 -212.707031 91.226562 -206.835938 93.9375 -198.703125 L 136.84375 -64.578125 L 130.96875 -58.25 L 183.8125 -233.9375 L 192.84375 -229.875 L 123.734375 0.90625 C 118.921875 0.601562 114.101562 0.453125 109.28125 0.453125 C 104.46875 0.453125 99.503906 0.601562 94.390625 0.90625 L 23.03125 -198.703125 C 18.8125 -210.742188 14.21875 -217.96875 9.25 -220.375 C 4.289062 -222.789062 0.15625 -224 -3.15625 -224 L -3.15625 -233.484375 C 6.476562 -232.578125 16.488281 -231.894531 26.875 -231.4375 C 37.257812 -230.988281 48.625 -230.765625 60.96875 -230.765625 C 70.300781 -230.765625 80.160156 -231.066406 90.546875 -231.671875 C 100.929688 -232.273438 110.640625 -232.878906 119.671875 -233.484375 Z M 355.421875 -233.484375 L 355.421875 -224.453125 C 349.703125 -222.941406 344.28125 -219.476562 339.15625 -214.0625 C 334.039062 -208.644531 329.222656 -199.160156 324.703125 -185.609375 L 264.640625 0.90625 C 259.828125 0.601562 254.9375 0.453125 249.96875 0.453125 C 245 0.453125 240.101562 0.601562 235.28125 0.90625 L 171.609375 -172.96875 L 183.8125 -233.9375 C 189.226562 -233.632812 194.71875 -233.554688 200.28125 -233.703125 C 205.851562 -233.859375 211.347656 -233.9375 216.765625 -233.9375 L 278.640625 -51.484375 L 273.671875 -56.453125 L 303.9375 -152.1875 C 309.050781 -168.75 311.003906 -182.144531 309.796875 -192.375 C 308.597656 -202.613281 304.988281 -210.289062 298.96875 -215.40625 C 292.945312 -220.53125 284.816406 -223.546875 274.578125 -224.453125 L 274.578125 -233.484375 C 279.390625 -233.179688 284.582031 -232.953125 290.15625 -232.796875 C 295.726562 -232.648438 301.296875 -232.5 306.859375 -232.34375 C 312.429688 -232.195312 317.175781 -232.125 321.09375 -232.125 C 327.113281 -232.125 333.359375 -232.273438 339.828125 -232.578125 C 346.304688 -232.878906 351.503906 -233.179688 355.421875 -233.484375 Z M 355.421875 -233.484375 "/></g></g></g><g fill="#ffd700" fill-opacity="1"><g transform="translate(1775.039285, 544.995866)"><g><path d="M 119.671875 -233.484375 L 119.671875 -224 C 113.046875 -224 107.25 -223.617188 102.28125 -222.859375 C 97.320312 -222.109375 94.015625 -219.925781 92.359375 -216.3125 C 90.703125 -212.707031 91.226562 -206.835938 93.9375 -198.703125 L 136.84375 -64.578125 L 130.96875 -58.25 L 183.8125 -233.9375 L 192.84375 -229.875 L 123.734375 0.90625 C 118.921875 0.601562 114.101562 0.453125 109.28125 0.453125 C 104.46875 0.453125 99.503906 0.601562 94.390625 0.90625 L 23.03125 -198.703125 C 18.8125 -210.742188 14.21875 -217.96875 9.25 -220.375 C 4.289062 -222.789062 0.15625 -224 -3.15625 -224 L -3.15625 -233.484375 C 6.476562 -232.578125 16.488281 -231.894531 26.875 -231.4375 C 37.257812 -230.988281 48.625 -230.765625 60.96875 -230.765625 C 70.300781 -230.765625 80.160156 -231.066406 90.546875 -231.671875 C 100.929688 -232.273438 110.640625 -232.878906 119.671875 -233.484375 Z M 355.421875 -233.484375 L 355.421875 -224.453125 C 349.703125 -222.941406 344.28125 -219.476562 339.15625 -214.0625 C 334.039062 -208.644531 329.222656 -199.160156 324.703125 -185.609375 L 264.640625 0.90625 C 259.828125 0.601562 254.9375 0.453125 249.96875 0.453125 C 245 0.453125 240.101562 0.601562 235.28125 0.90625 L 171.609375 -172.96875 L 183.8125 -233.9375 C 189.226562 -233.632812 194.71875 -233.554688 200.28125 -233.703125 C 205.851562 -233.859375 211.347656 -233.9375 216.765625 -233.9375 L 278.640625 -51.484375 L 273.671875 -56.453125 L 303.9375 -152.1875 C 309.050781 -168.75 311.003906 -182.144531 309.796875 -192.375 C 308.597656 -202.613281 304.988281 -210.289062 298.96875 -215.40625 C 292.945312 -220.53125 284.816406 -223.546875 274.578125 -224.453125 L 274.578125 -233.484375 C 279.390625 -233.179688 284.582031 -232.953125 290.15625 -232.796875 C 295.726562 -232.648438 301.296875 -232.5 306.859375 -232.34375 C 312.429688 -232.195312 317.175781 -232.125 321.09375 -232.125 C 327.113281 -232.125 333.359375 -232.273438 339.828125 -232.578125 C 346.304688 -232.878906 351.503906 -233.179688 355.421875 -233.484375 Z M 355.421875 -233.484375 "/></g></g></g></svg>