<svg xmlns="http://www.w3.org/2000/svg" xmlns:xlink="http://www.w3.org/1999/xlink" width="500" zoomAndPan="magnify" viewBox="0 0 375 374.999991" height="500" preserveAspectRatio="xMidYMid meet" version="1.0"><defs><g/></defs><path fill="#f89e19" d="M 252.933594 190.382812 L 250.925781 191.15625 L 263.183594 222.976562 L 265.191406 222.199219 C 273.964844 218.8125 278.335938 208.941406 274.953125 200.15625 C 271.570312 191.371094 261.710938 186.992188 252.933594 190.382812 " fill-opacity="1" fill-rule="nonzero"/><path fill="#f5c116" d="M 272.25 201.199219 C 275.632812 209.984375 271.261719 219.855469 262.484375 223.242188 C 253.707031 226.632812 243.847656 222.257812 240.464844 213.46875 C 237.078125 204.683594 241.449219 194.8125 250.226562 191.425781 C 259.003906 188.035156 268.863281 192.414062 272.25 201.199219 " fill-opacity="1" fill-rule="nonzero"/><path fill="#f89e19" d="M 259.707031 213.175781 C 260.296875 212.808594 260.699219 212.316406 260.917969 211.6875 C 261.136719 211.0625 261.125 210.429688 260.878906 209.789062 C 260.65625 209.21875 260.300781 208.792969 259.804688 208.511719 C 259.308594 208.226562 258.636719 208.121094 257.789062 208.195312 Z M 252.625 200.308594 C 252.1875 200.667969 251.898438 201.113281 251.761719 201.636719 C 251.621094 202.160156 251.644531 202.667969 251.832031 203.164062 C 252.007812 203.613281 252.304688 203.980469 252.726562 204.261719 C 253.148438 204.542969 253.679688 204.699219 254.324219 204.722656 Z M 257.789062 213.710938 L 255.726562 208.359375 C 253.875 208.527344 252.378906 208.28125 251.226562 207.613281 C 250.078125 206.945312 249.234375 205.925781 248.707031 204.546875 C 248.167969 203.152344 248.15625 201.808594 248.671875 200.519531 C 249.183594 199.230469 250.144531 198.230469 251.550781 197.523438 L 251.066406 196.257812 L 252.914062 195.546875 L 253.402344 196.808594 C 254.816406 196.449219 256.066406 196.496094 257.160156 196.949219 C 258.253906 197.402344 259.15625 198.222656 259.867188 199.417969 L 256.804688 201.082031 C 256.222656 200.152344 255.449219 199.671875 254.488281 199.632812 L 256.410156 204.621094 C 258.664062 204.386719 260.332031 204.566406 261.410156 205.164062 C 262.488281 205.757812 263.292969 206.746094 263.824219 208.125 C 264.417969 209.667969 264.453125 211.144531 263.929688 212.554688 C 263.402344 213.972656 262.355469 215.117188 260.792969 215.996094 L 261.710938 218.386719 L 259.863281 219.097656 L 258.96875 216.773438 C 257.425781 217.164062 256.023438 217.078125 254.75 216.511719 C 253.476562 215.945312 252.390625 214.875 251.488281 213.296875 L 254.679688 211.65625 C 255.078125 212.28125 255.558594 212.769531 256.125 213.121094 C 256.6875 213.46875 257.242188 213.664062 257.789062 213.710938 " fill-opacity="1" fill-rule="nonzero"/><path fill="#e98b1b" d="M 258.863281 190.160156 C 258.429688 190.109375 257.996094 190.074219 257.554688 190.058594 L 259.160156 189.441406 C 259.628906 189.441406 260.101562 189.457031 260.570312 189.5 L 260.550781 189.511719 L 258.863281 190.160156 " fill-opacity="1" fill-rule="nonzero"/><path fill="#e98b1b" d="M 260.722656 190.472656 C 260.378906 190.394531 260.027344 190.332031 259.675781 190.273438 L 261.429688 189.59375 C 261.722656 189.636719 262.011719 189.683594 262.300781 189.738281 C 262.277344 189.820312 262.222656 189.894531 262.132812 189.929688 L 260.722656 190.472656 " fill-opacity="1" fill-rule="nonzero"/><path fill="#e98b1b" d="M 254.402344 190.246094 L 255.34375 189.882812 C 256.210938 189.679688 257.082031 189.546875 257.949219 189.480469 L 256.457031 190.058594 C 255.773438 190.078125 255.089844 190.140625 254.402344 190.246094 " fill-opacity="1" fill-rule="nonzero"/><path fill="#e98b1b" d="M 262.273438 190.90625 C 261.984375 190.808594 261.6875 190.722656 261.390625 190.640625 L 263.207031 189.941406 C 263.4375 189.996094 263.667969 190.058594 263.894531 190.125 C 263.878906 190.222656 263.816406 190.308594 263.71875 190.347656 L 262.273438 190.90625 " fill-opacity="1" fill-rule="nonzero"/><path fill="#e98b1b" d="M 263.621094 191.417969 C 263.367188 191.308594 263.109375 191.207031 262.847656 191.109375 L 264.710938 190.390625 C 264.953125 190.476562 265.191406 190.566406 265.429688 190.660156 C 265.398438 190.707031 265.359375 190.746094 265.304688 190.769531 L 263.621094 191.417969 " fill-opacity="1" fill-rule="nonzero"/><path fill="#e98b1b" d="M 264.824219 191.984375 C 264.597656 191.867188 264.367188 191.753906 264.132812 191.644531 L 266.027344 190.914062 C 266.265625 191.019531 266.5 191.128906 266.730469 191.246094 L 264.824219 191.984375 " fill-opacity="1" fill-rule="nonzero"/><path fill="#e98b1b" d="M 265.90625 192.597656 C 265.703125 192.472656 265.496094 192.347656 265.285156 192.230469 L 267.195312 191.492188 C 267.40625 191.609375 267.617188 191.730469 267.824219 191.855469 L 265.90625 192.597656 " fill-opacity="1" fill-rule="nonzero"/><path fill="#e98b1b" d="M 266.882812 193.25 C 266.699219 193.117188 266.507812 192.988281 266.316406 192.863281 L 268.25 192.121094 C 268.441406 192.242188 268.632812 192.371094 268.824219 192.503906 L 266.882812 193.25 " fill-opacity="1" fill-rule="nonzero"/><path fill="#e98b1b" d="M 267.777344 193.9375 C 267.609375 193.796875 267.4375 193.660156 267.261719 193.527344 L 269.203125 192.78125 C 269.378906 192.914062 269.550781 193.046875 269.722656 193.1875 L 267.777344 193.9375 " fill-opacity="1" fill-rule="nonzero"/><path fill="#e98b1b" d="M 268.597656 194.652344 C 268.441406 194.507812 268.285156 194.367188 268.125 194.230469 L 270.074219 193.472656 C 270.238281 193.613281 270.394531 193.753906 270.550781 193.898438 L 268.597656 194.652344 " fill-opacity="1" fill-rule="nonzero"/><path fill="#e98b1b" d="M 269.339844 195.394531 C 269.199219 195.246094 269.054688 195.101562 268.910156 194.957031 L 270.867188 194.199219 C 271.015625 194.34375 271.160156 194.488281 271.304688 194.640625 L 269.339844 195.394531 " fill-opacity="1" fill-rule="nonzero"/><path fill="#e98b1b" d="M 273.960938 208.070312 C 273.972656 207.867188 273.980469 207.660156 273.984375 207.457031 L 275.949219 206.699219 C 275.941406 206.90625 275.929688 207.109375 275.917969 207.316406 L 273.960938 208.070312 " fill-opacity="1" fill-rule="nonzero"/><path fill="#e98b1b" d="M 273.867188 209.140625 C 273.894531 208.929688 273.917969 208.71875 273.933594 208.507812 L 275.886719 207.753906 C 275.867188 207.964844 275.847656 208.175781 275.820312 208.386719 L 273.867188 209.140625 " fill-opacity="1" fill-rule="nonzero"/><path fill="#e98b1b" d="M 273.699219 210.234375 C 273.738281 210.019531 273.773438 209.804688 273.804688 209.589844 L 275.75 208.835938 C 275.71875 209.054688 275.679688 209.269531 275.636719 209.488281 L 273.699219 210.234375 " fill-opacity="1" fill-rule="nonzero"/><path fill="#e98b1b" d="M 273.445312 211.363281 C 273.503906 211.140625 273.554688 210.921875 273.605469 210.695312 L 275.542969 209.949219 C 275.492188 210.171875 275.433594 210.394531 275.375 210.621094 L 273.445312 211.363281 " fill-opacity="1" fill-rule="nonzero"/><path fill="#e98b1b" d="M 273.105469 212.527344 C 273.179688 212.300781 273.25 212.066406 273.316406 211.839844 L 275.238281 211.097656 C 275.167969 211.328125 275.089844 211.5625 275.011719 211.789062 L 273.105469 212.527344 " fill-opacity="1" fill-rule="nonzero"/><path fill="#e98b1b" d="M 273.507812 203.09375 C 273.460938 202.90625 273.417969 202.722656 273.367188 202.539062 L 275.347656 201.777344 C 275.394531 201.960938 275.441406 202.144531 275.484375 202.328125 L 273.507812 203.09375 " fill-opacity="1" fill-rule="nonzero"/><path fill="#e98b1b" d="M 273.710938 204.042969 C 273.675781 203.855469 273.644531 203.667969 273.601562 203.480469 L 275.578125 202.71875 C 275.617188 202.90625 275.652344 203.09375 275.6875 203.28125 L 273.710938 204.042969 " fill-opacity="1" fill-rule="nonzero"/><path fill="#e98b1b" d="M 273.253906 202.160156 C 273.195312 201.980469 273.140625 201.796875 273.082031 201.621094 L 275.058594 200.855469 C 275.121094 201.035156 275.175781 201.214844 275.230469 201.394531 L 273.253906 202.160156 " fill-opacity="1" fill-rule="nonzero"/><path fill="#e98b1b" d="M 272.945312 201.246094 C 272.914062 201.15625 272.882812 201.0625 272.847656 200.96875 C 272.816406 200.882812 272.777344 200.804688 272.746094 200.71875 L 274.726562 199.953125 C 274.757812 200.039062 274.796875 200.117188 274.828125 200.203125 C 274.863281 200.296875 274.894531 200.390625 274.925781 200.480469 L 272.945312 201.246094 " fill-opacity="1" fill-rule="nonzero"/><path fill="#e98b1b" d="M 272.59375 200.351562 C 272.519531 200.179688 272.4375 200.007812 272.359375 199.835938 L 274.339844 199.070312 C 274.417969 199.242188 274.5 199.414062 274.574219 199.585938 L 272.59375 200.351562 " fill-opacity="1" fill-rule="nonzero"/><path fill="#e98b1b" d="M 272.1875 199.480469 C 272.105469 199.308594 272.015625 199.140625 271.925781 198.972656 L 273.902344 198.210938 C 273.992188 198.378906 274.082031 198.542969 274.167969 198.714844 L 272.1875 199.480469 " fill-opacity="1" fill-rule="nonzero"/><path fill="#e98b1b" d="M 271.734375 198.621094 C 271.640625 198.457031 271.539062 198.292969 271.4375 198.128906 L 273.414062 197.367188 C 273.515625 197.53125 273.617188 197.691406 273.710938 197.859375 L 271.734375 198.621094 " fill-opacity="1" fill-rule="nonzero"/><path fill="#e98b1b" d="M 271.222656 197.789062 C 271.117188 197.625 271.011719 197.464844 270.898438 197.308594 L 272.871094 196.546875 C 272.984375 196.703125 273.089844 196.863281 273.199219 197.023438 L 271.222656 197.789062 " fill-opacity="1" fill-rule="nonzero"/><path fill="#e98b1b" d="M 270.660156 196.976562 C 270.542969 196.816406 270.425781 196.660156 270.304688 196.503906 L 272.273438 195.746094 C 272.394531 195.898438 272.511719 196.058594 272.628906 196.214844 L 270.660156 196.976562 " fill-opacity="1" fill-rule="nonzero"/><path fill="#e98b1b" d="M 270.035156 196.183594 C 269.910156 196.03125 269.78125 195.878906 269.648438 195.730469 L 271.609375 194.972656 C 271.742188 195.117188 271.875 195.269531 272.003906 195.425781 L 270.035156 196.183594 " fill-opacity="1" fill-rule="nonzero"/><path fill="#e98b1b" d="M 273.863281 205.015625 C 273.839844 204.824219 273.8125 204.632812 273.78125 204.441406 L 275.753906 203.679688 C 275.785156 203.871094 275.8125 204.0625 275.835938 204.253906 L 273.863281 205.015625 " fill-opacity="1" fill-rule="nonzero"/><path fill="#e98b1b" d="M 273.957031 206.011719 C 273.945312 205.816406 273.925781 205.621094 273.90625 205.425781 L 275.878906 204.664062 C 275.894531 204.859375 275.914062 205.054688 275.925781 205.253906 L 273.957031 206.011719 " fill-opacity="1" fill-rule="nonzero"/><path fill="#e98b1b" d="M 273.988281 207.027344 C 273.988281 206.828125 273.984375 206.628906 273.976562 206.429688 L 275.941406 205.671875 C 275.949219 205.871094 275.953125 206.074219 275.953125 206.269531 L 273.988281 207.027344 " fill-opacity="1" fill-rule="nonzero"/><path fill="#e98b1b" d="M 272.640625 213.734375 C 272.742188 213.5 272.835938 213.261719 272.925781 213.019531 L 274.832031 212.285156 C 274.742188 212.527344 274.640625 212.765625 274.539062 213.003906 L 272.640625 213.734375 " fill-opacity="1" fill-rule="nonzero"/><path fill="#e98b1b" d="M 272.050781 214.996094 C 272.179688 214.75 272.300781 214.5 272.417969 214.246094 L 274.097656 213.597656 C 274.128906 213.585938 274.15625 213.582031 274.1875 213.582031 C 274.210938 213.582031 274.238281 213.585938 274.265625 213.589844 C 274.152344 213.824219 274.035156 214.050781 273.910156 214.277344 L 272.050781 214.996094 " fill-opacity="1" fill-rule="nonzero"/><path fill="#e98b1b" d="M 271.28125 216.324219 C 271.449219 216.0625 271.609375 215.800781 271.761719 215.53125 L 273.207031 214.976562 C 273.238281 214.960938 273.269531 214.957031 273.300781 214.957031 C 273.367188 214.957031 273.433594 214.980469 273.484375 215.023438 C 273.359375 215.222656 273.230469 215.421875 273.101562 215.621094 L 271.28125 216.324219 " fill-opacity="1" fill-rule="nonzero"/><path fill="#e98b1b" d="M 270.257812 217.75 C 270.480469 217.46875 270.699219 217.1875 270.902344 216.894531 L 272.3125 216.351562 C 272.34375 216.339844 272.375 216.332031 272.40625 216.332031 C 272.464844 216.332031 272.515625 216.351562 272.5625 216.378906 C 272.386719 216.613281 272.203125 216.84375 272.015625 217.074219 L 270.257812 217.75 " fill-opacity="1" fill-rule="nonzero"/><path fill="#e98b1b" d="M 268.832031 219.332031 C 269.144531 219.023438 269.445312 218.707031 269.734375 218.375 L 271.417969 217.726562 L 271.441406 217.722656 C 271.121094 218.066406 270.785156 218.394531 270.433594 218.710938 L 268.832031 219.332031 " fill-opacity="1" fill-rule="nonzero"/><path fill="#e98b1b" d="M 266.371094 221.3125 C 266.949219 220.929688 267.5 220.511719 268.019531 220.066406 L 269.511719 219.492188 C 268.824219 220.027344 268.089844 220.515625 267.308594 220.949219 L 266.371094 221.3125 " fill-opacity="1" fill-rule="nonzero"/><g fill="#e98b1b" fill-opacity="0.302"><g transform="translate(60.743596, 222.305259)"><g><path d="M 15.734375 -39.953125 C 17.910156 -39.953125 19.585938 -39.71875 20.765625 -39.25 C 21.953125 -38.789062 22.972656 -38.300781 23.828125 -37.78125 C 24.265625 -37.53125 24.625 -37.335938 24.90625 -37.203125 C 25.1875 -37.078125 25.453125 -37.015625 25.703125 -37.015625 C 26.078125 -37.015625 26.347656 -37.21875 26.515625 -37.625 C 26.679688 -38.03125 26.816406 -38.640625 26.921875 -39.453125 L 28.203125 -39.453125 C 28.160156 -38.742188 28.113281 -37.898438 28.0625 -36.921875 C 28.007812 -35.941406 27.972656 -34.65625 27.953125 -33.0625 C 27.929688 -31.476562 27.921875 -29.394531 27.921875 -26.8125 L 26.65625 -26.8125 C 26.5 -28.738281 26.050781 -30.601562 25.3125 -32.40625 C 24.582031 -34.21875 23.539062 -35.707031 22.1875 -36.875 C 20.84375 -38.039062 19.191406 -38.625 17.234375 -38.625 C 15.460938 -38.625 14.003906 -38.125 12.859375 -37.125 C 11.710938 -36.125 11.140625 -34.738281 11.140625 -32.96875 C 11.140625 -31.488281 11.507812 -30.222656 12.25 -29.171875 C 12.988281 -28.117188 14.066406 -27.09375 15.484375 -26.09375 C 16.910156 -25.09375 18.640625 -23.894531 20.671875 -22.5 C 22.441406 -21.351562 24.023438 -20.207031 25.421875 -19.0625 C 26.828125 -17.914062 27.953125 -16.617188 28.796875 -15.171875 C 29.648438 -13.734375 30.078125 -12.019531 30.078125 -10.03125 C 30.078125 -7.59375 29.441406 -5.578125 28.171875 -3.984375 C 26.898438 -2.398438 25.226562 -1.207031 23.15625 -0.40625 C 21.09375 0.382812 18.820312 0.78125 16.34375 0.78125 C 14.050781 0.78125 12.222656 0.554688 10.859375 0.109375 C 9.492188 -0.328125 8.347656 -0.789062 7.421875 -1.28125 C 6.609375 -1.789062 5.984375 -2.046875 5.546875 -2.046875 C 5.171875 -2.046875 4.898438 -1.84375 4.734375 -1.4375 C 4.566406 -1.03125 4.429688 -0.421875 4.328125 0.390625 L 3.046875 0.390625 C 3.117188 -0.492188 3.164062 -1.523438 3.1875 -2.703125 C 3.207031 -3.890625 3.222656 -5.429688 3.234375 -7.328125 C 3.253906 -9.234375 3.265625 -11.648438 3.265625 -14.578125 L 4.546875 -14.578125 C 4.691406 -12.140625 5.101562 -9.859375 5.78125 -7.734375 C 6.46875 -5.609375 7.519531 -3.898438 8.9375 -2.609375 C 10.363281 -1.316406 12.257812 -0.671875 14.625 -0.671875 C 15.914062 -0.671875 17.066406 -0.898438 18.078125 -1.359375 C 19.097656 -1.816406 19.921875 -2.507812 20.546875 -3.4375 C 21.179688 -4.363281 21.5 -5.507812 21.5 -6.875 C 21.5 -8.425781 21.140625 -9.769531 20.421875 -10.90625 C 19.703125 -12.050781 18.722656 -13.125 17.484375 -14.125 C 16.242188 -15.125 14.8125 -16.140625 13.1875 -17.171875 C 11.445312 -18.316406 9.820312 -19.460938 8.3125 -20.609375 C 6.800781 -21.753906 5.59375 -23.066406 4.6875 -24.546875 C 3.78125 -26.023438 3.328125 -27.78125 3.328125 -29.8125 C 3.328125 -32.132812 3.90625 -34.039062 5.0625 -35.53125 C 6.226562 -37.03125 7.757812 -38.140625 9.65625 -38.859375 C 11.5625 -39.585938 13.585938 -39.953125 15.734375 -39.953125 Z M 15.734375 -39.953125 "/></g></g></g><g fill="#e98b1b" fill-opacity="0.302"><g transform="translate(91.106562, 222.305259)"><g><path d="M 12.625 -29.25 L 12.625 4.546875 C 12.625 6.273438 13.066406 7.425781 13.953125 8 C 14.847656 8.570312 16.070312 8.859375 17.625 8.859375 L 17.625 10.03125 C 16.65625 9.988281 15.332031 9.941406 13.65625 9.890625 C 11.976562 9.835938 10.195312 9.8125 8.3125 9.8125 C 6.945312 9.8125 5.609375 9.835938 4.296875 9.890625 C 2.984375 9.941406 1.992188 9.988281 1.328125 10.03125 L 1.328125 8.859375 C 2.546875 8.859375 3.40625 8.597656 3.90625 8.078125 C 4.40625 7.566406 4.65625 6.570312 4.65625 5.09375 L 4.65625 -22.609375 C 4.65625 -24.265625 4.394531 -25.488281 3.875 -26.28125 C 3.363281 -27.082031 2.441406 -27.484375 1.109375 -27.484375 L 1.109375 -28.640625 C 2.285156 -28.535156 3.429688 -28.484375 4.546875 -28.484375 C 6.054688 -28.484375 7.492188 -28.546875 8.859375 -28.671875 C 10.234375 -28.796875 11.488281 -28.988281 12.625 -29.25 Z M 21.21875 -29.421875 C 23.101562 -29.421875 24.785156 -28.910156 26.265625 -27.890625 C 27.742188 -26.878906 28.925781 -25.347656 29.8125 -23.296875 C 30.695312 -21.242188 31.140625 -18.6875 31.140625 -15.625 C 31.140625 -12.925781 30.832031 -10.5625 30.21875 -8.53125 C 29.613281 -6.5 28.75 -4.789062 27.625 -3.40625 C 26.5 -2.019531 25.148438 -0.972656 23.578125 -0.265625 C 22.003906 0.429688 20.238281 0.78125 18.28125 0.78125 C 16.84375 0.78125 15.53125 0.53125 14.34375 0.03125 C 13.164062 -0.46875 12.265625 -1.179688 11.640625 -2.109375 L 12.1875 -2.828125 C 12.5625 -2.160156 13.085938 -1.640625 13.765625 -1.265625 C 14.453125 -0.898438 15.238281 -0.71875 16.125 -0.71875 C 17.78125 -0.71875 19.085938 -1.28125 20.046875 -2.40625 C 21.015625 -3.53125 21.707031 -5.117188 22.125 -7.171875 C 22.550781 -9.222656 22.765625 -11.671875 22.765625 -14.515625 C 22.765625 -17.691406 22.5625 -20.1875 22.15625 -22 C 21.75 -23.8125 21.195312 -25.101562 20.5 -25.875 C 19.800781 -26.644531 18.953125 -27.03125 17.953125 -27.03125 C 16.617188 -27.03125 15.40625 -26.515625 14.3125 -25.484375 C 13.226562 -24.453125 12.613281 -22.972656 12.46875 -21.046875 L 12.1875 -23 C 12.851562 -25.101562 13.988281 -26.695312 15.59375 -27.78125 C 17.195312 -28.875 19.070312 -29.421875 21.21875 -29.421875 Z M 21.21875 -29.421875 "/></g></g></g><g fill="#e98b1b" fill-opacity="0.302"><g transform="translate(122.356046, 222.305259)"><g><path d="M 15.625 -29.421875 C 18.875 -29.421875 21.421875 -28.457031 23.265625 -26.53125 C 25.117188 -24.613281 26.046875 -21.476562 26.046875 -17.125 L 7.8125 -17.125 L 7.703125 -18.171875 L 19.0625 -18.171875 C 19.09375 -19.984375 18.976562 -21.65625 18.71875 -23.1875 C 18.46875 -24.71875 18.0625 -25.941406 17.5 -26.859375 C 16.945312 -27.785156 16.210938 -28.25 15.296875 -28.25 C 14.003906 -28.25 12.90625 -27.4375 12 -25.8125 C 11.09375 -24.1875 10.546875 -21.492188 10.359375 -17.734375 L 10.53125 -17.390625 C 10.488281 -16.953125 10.457031 -16.492188 10.4375 -16.015625 C 10.425781 -15.535156 10.421875 -15.035156 10.421875 -14.515625 C 10.421875 -11.960938 10.78125 -9.890625 11.5 -8.296875 C 12.21875 -6.710938 13.128906 -5.5625 14.234375 -4.84375 C 15.347656 -4.125 16.476562 -3.765625 17.625 -3.765625 C 18.394531 -3.765625 19.195312 -3.882812 20.03125 -4.125 C 20.863281 -4.363281 21.703125 -4.804688 22.546875 -5.453125 C 23.398438 -6.097656 24.195312 -7.015625 24.9375 -8.203125 L 25.9375 -7.875 C 25.488281 -6.46875 24.785156 -5.097656 23.828125 -3.765625 C 22.867188 -2.429688 21.648438 -1.335938 20.171875 -0.484375 C 18.691406 0.359375 16.914062 0.78125 14.84375 0.78125 C 12.332031 0.78125 10.113281 0.242188 8.1875 -0.828125 C 6.269531 -1.898438 4.765625 -3.523438 3.671875 -5.703125 C 2.585938 -7.878906 2.046875 -10.648438 2.046875 -14.015625 C 2.046875 -17.453125 2.628906 -20.316406 3.796875 -22.609375 C 4.960938 -24.898438 6.566406 -26.609375 8.609375 -27.734375 C 10.660156 -28.859375 13 -29.421875 15.625 -29.421875 Z M 15.625 -29.421875 "/></g></g></g><g fill="#e98b1b" fill-opacity="0.302"><g transform="translate(148.286435, 222.305259)"><g><path d="M 21.9375 -29.421875 C 23.488281 -29.421875 24.753906 -29.222656 25.734375 -28.828125 C 26.710938 -28.441406 27.476562 -27.921875 28.03125 -27.265625 C 28.625 -26.554688 29.054688 -25.648438 29.328125 -24.546875 C 29.609375 -23.441406 29.75 -21.945312 29.75 -20.0625 L 29.75 -5.15625 C 29.75 -3.601562 30.015625 -2.546875 30.546875 -1.984375 C 31.085938 -1.429688 32.003906 -1.15625 33.296875 -1.15625 L 33.296875 0 C 32.597656 -0.0390625 31.546875 -0.0859375 30.140625 -0.140625 C 28.734375 -0.191406 27.347656 -0.21875 25.984375 -0.21875 C 24.578125 -0.21875 23.195312 -0.191406 21.84375 -0.140625 C 20.5 -0.0859375 19.476562 -0.0390625 18.78125 0 L 18.78125 -1.15625 C 19.882812 -1.15625 20.660156 -1.429688 21.109375 -1.984375 C 21.554688 -2.546875 21.78125 -3.601562 21.78125 -5.15625 L 21.78125 -22.390625 C 21.78125 -23.304688 21.6875 -24.101562 21.5 -24.78125 C 21.3125 -25.46875 20.976562 -26.003906 20.5 -26.390625 C 20.019531 -26.785156 19.300781 -26.984375 18.34375 -26.984375 C 17.34375 -26.984375 16.425781 -26.707031 15.59375 -26.15625 C 14.757812 -25.601562 14.09375 -24.835938 13.59375 -23.859375 C 13.101562 -22.878906 12.859375 -21.78125 12.859375 -20.5625 L 12.859375 -5.15625 C 12.859375 -3.601562 13.085938 -2.546875 13.546875 -1.984375 C 14.003906 -1.429688 14.769531 -1.15625 15.84375 -1.15625 L 15.84375 0 C 15.175781 -0.0390625 14.207031 -0.0859375 12.9375 -0.140625 C 11.664062 -0.191406 10.34375 -0.21875 8.96875 -0.21875 C 7.570312 -0.21875 6.132812 -0.191406 4.65625 -0.140625 C 3.175781 -0.0859375 2.066406 -0.0390625 1.328125 0 L 1.328125 -1.15625 C 2.617188 -1.15625 3.53125 -1.429688 4.0625 -1.984375 C 4.601562 -2.546875 4.875 -3.601562 4.875 -5.15625 L 4.875 -22.609375 C 4.875 -24.265625 4.625 -25.488281 4.125 -26.28125 C 3.625 -27.082031 2.691406 -27.484375 1.328125 -27.484375 L 1.328125 -28.640625 C 2.515625 -28.535156 3.660156 -28.484375 4.765625 -28.484375 C 6.316406 -28.484375 7.765625 -28.546875 9.109375 -28.671875 C 10.460938 -28.796875 11.710938 -28.988281 12.859375 -29.25 L 12.859375 -24.265625 C 13.773438 -26.148438 15.023438 -27.476562 16.609375 -28.25 C 18.203125 -29.03125 19.976562 -29.421875 21.9375 -29.421875 Z M 21.9375 -29.421875 "/></g></g></g><g fill="#e98b1b" fill-opacity="0.302"><g transform="translate(180.311616, 222.305259)"><g><path d="M 28.59375 -43.390625 L 28.59375 -6.09375 C 28.59375 -4.425781 28.847656 -3.195312 29.359375 -2.40625 C 29.878906 -1.613281 30.804688 -1.21875 32.140625 -1.21875 L 32.140625 -0.0625 C 30.992188 -0.164062 29.847656 -0.21875 28.703125 -0.21875 C 27.148438 -0.21875 25.695312 -0.160156 24.34375 -0.046875 C 23 0.0546875 21.753906 0.253906 20.609375 0.546875 L 20.609375 -36.734375 C 20.609375 -38.398438 20.359375 -39.628906 19.859375 -40.421875 C 19.359375 -41.210938 18.425781 -41.609375 17.0625 -41.609375 L 17.0625 -42.78125 C 18.25 -42.664062 19.394531 -42.609375 20.5 -42.609375 C 22.007812 -42.609375 23.445312 -42.671875 24.8125 -42.796875 C 26.1875 -42.929688 27.445312 -43.128906 28.59375 -43.390625 Z M 14.46875 -29.421875 C 16.09375 -29.421875 17.519531 -29.148438 18.75 -28.609375 C 19.988281 -28.078125 20.957031 -27.1875 21.65625 -25.9375 L 21 -25.328125 C 20.519531 -26.210938 19.878906 -26.847656 19.078125 -27.234375 C 18.285156 -27.617188 17.445312 -27.8125 16.5625 -27.8125 C 14.675781 -27.8125 13.179688 -26.710938 12.078125 -24.515625 C 10.972656 -22.316406 10.4375 -18.925781 10.46875 -14.34375 C 10.46875 -11.207031 10.679688 -8.707031 11.109375 -6.84375 C 11.535156 -4.976562 12.144531 -3.640625 12.9375 -2.828125 C 13.726562 -2.015625 14.644531 -1.609375 15.6875 -1.609375 C 16.9375 -1.609375 18.0625 -2.101562 19.0625 -3.09375 C 20.0625 -4.09375 20.597656 -5.441406 20.671875 -7.140625 L 20.9375 -5.203125 C 20.382812 -3.242188 19.488281 -1.753906 18.25 -0.734375 C 17.019531 0.273438 15.40625 0.78125 13.40625 0.78125 C 11.226562 0.78125 9.28125 0.242188 7.5625 -0.828125 C 5.84375 -1.898438 4.503906 -3.550781 3.546875 -5.78125 C 2.585938 -8.019531 2.109375 -10.914062 2.109375 -14.46875 C 2.109375 -17.820312 2.640625 -20.597656 3.703125 -22.796875 C 4.773438 -24.992188 6.242188 -26.644531 8.109375 -27.75 C 9.984375 -28.863281 12.101562 -29.421875 14.46875 -29.421875 Z M 14.46875 -29.421875 "/></g></g></g><g fill="#e98b1b" fill-opacity="0.302"><g transform="translate(211.450277, 222.305259)"><g><path d="M 8.53125 -42.9375 C 10.082031 -42.9375 11.3125 -42.554688 12.21875 -41.796875 C 13.125 -41.046875 13.578125 -40.003906 13.578125 -38.671875 C 13.578125 -37.335938 13.125 -36.289062 12.21875 -35.53125 C 11.3125 -34.78125 10.082031 -34.40625 8.53125 -34.40625 C 6.976562 -34.40625 5.75 -34.78125 4.84375 -35.53125 C 3.9375 -36.289062 3.484375 -37.335938 3.484375 -38.671875 C 3.484375 -40.003906 3.9375 -41.046875 4.84375 -41.796875 C 5.75 -42.554688 6.976562 -42.9375 8.53125 -42.9375 Z M 12.859375 -29.25 L 12.859375 -5.15625 C 12.859375 -3.601562 13.125 -2.546875 13.65625 -1.984375 C 14.195312 -1.429688 15.113281 -1.15625 16.40625 -1.15625 L 16.40625 0 C 15.738281 -0.0390625 14.703125 -0.0859375 13.296875 -0.140625 C 11.890625 -0.191406 10.46875 -0.21875 9.03125 -0.21875 C 7.59375 -0.21875 6.132812 -0.191406 4.65625 -0.140625 C 3.175781 -0.0859375 2.066406 -0.0390625 1.328125 0 L 1.328125 -1.15625 C 2.617188 -1.15625 3.53125 -1.429688 4.0625 -1.984375 C 4.601562 -2.546875 4.875 -3.601562 4.875 -5.15625 L 4.875 -22.609375 C 4.875 -24.265625 4.625 -25.488281 4.125 -26.28125 C 3.625 -27.082031 2.691406 -27.484375 1.328125 -27.484375 L 1.328125 -28.640625 C 2.515625 -28.535156 3.660156 -28.484375 4.765625 -28.484375 C 6.316406 -28.484375 7.765625 -28.546875 9.109375 -28.671875 C 10.460938 -28.796875 11.710938 -28.988281 12.859375 -29.25 Z M 12.859375 -29.25 "/></g></g></g><g fill="#e98b1b" fill-opacity="0.302"><g transform="translate(226.908729, 222.305259)"><g><path d="M 12.625 -43.390625 L 12.625 -5.15625 C 12.625 -3.601562 12.890625 -2.546875 13.421875 -1.984375 C 13.960938 -1.429688 14.878906 -1.15625 16.171875 -1.15625 L 16.171875 0 C 15.472656 -0.0390625 14.421875 -0.0859375 13.015625 -0.140625 C 11.617188 -0.191406 10.195312 -0.21875 8.75 -0.21875 C 7.3125 -0.21875 5.863281 -0.191406 4.40625 -0.140625 C 2.945312 -0.0859375 1.847656 -0.0390625 1.109375 0 L 1.109375 -1.15625 C 2.398438 -1.15625 3.3125 -1.429688 3.84375 -1.984375 C 4.382812 -2.546875 4.65625 -3.601562 4.65625 -5.15625 L 4.65625 -36.734375 C 4.65625 -38.398438 4.40625 -39.628906 3.90625 -40.421875 C 3.40625 -41.210938 2.472656 -41.609375 1.109375 -41.609375 L 1.109375 -42.78125 C 2.285156 -42.664062 3.429688 -42.609375 4.546875 -42.609375 C 6.054688 -42.609375 7.492188 -42.671875 8.859375 -42.796875 C 10.234375 -42.929688 11.488281 -43.128906 12.625 -43.390625 Z M 12.625 -43.390625 "/></g></g></g><g fill="#e98b1b" fill-opacity="0.502"><g transform="translate(59.678307, 221.999797)"><g><path d="M 15.734375 -39.953125 C 17.910156 -39.953125 19.585938 -39.71875 20.765625 -39.25 C 21.953125 -38.789062 22.972656 -38.300781 23.828125 -37.78125 C 24.265625 -37.53125 24.625 -37.335938 24.90625 -37.203125 C 25.1875 -37.078125 25.453125 -37.015625 25.703125 -37.015625 C 26.078125 -37.015625 26.347656 -37.21875 26.515625 -37.625 C 26.679688 -38.03125 26.816406 -38.640625 26.921875 -39.453125 L 28.203125 -39.453125 C 28.160156 -38.742188 28.113281 -37.898438 28.0625 -36.921875 C 28.007812 -35.941406 27.972656 -34.65625 27.953125 -33.0625 C 27.929688 -31.476562 27.921875 -29.394531 27.921875 -26.8125 L 26.65625 -26.8125 C 26.5 -28.738281 26.050781 -30.601562 25.3125 -32.40625 C 24.582031 -34.21875 23.539062 -35.707031 22.1875 -36.875 C 20.84375 -38.039062 19.191406 -38.625 17.234375 -38.625 C 15.460938 -38.625 14.003906 -38.125 12.859375 -37.125 C 11.710938 -36.125 11.140625 -34.738281 11.140625 -32.96875 C 11.140625 -31.488281 11.507812 -30.222656 12.25 -29.171875 C 12.988281 -28.117188 14.066406 -27.09375 15.484375 -26.09375 C 16.910156 -25.09375 18.640625 -23.894531 20.671875 -22.5 C 22.441406 -21.351562 24.023438 -20.207031 25.421875 -19.0625 C 26.828125 -17.914062 27.953125 -16.617188 28.796875 -15.171875 C 29.648438 -13.734375 30.078125 -12.019531 30.078125 -10.03125 C 30.078125 -7.59375 29.441406 -5.578125 28.171875 -3.984375 C 26.898438 -2.398438 25.226562 -1.207031 23.15625 -0.40625 C 21.09375 0.382812 18.820312 0.78125 16.34375 0.78125 C 14.050781 0.78125 12.222656 0.554688 10.859375 0.109375 C 9.492188 -0.328125 8.347656 -0.789062 7.421875 -1.28125 C 6.609375 -1.789062 5.984375 -2.046875 5.546875 -2.046875 C 5.171875 -2.046875 4.898438 -1.84375 4.734375 -1.4375 C 4.566406 -1.03125 4.429688 -0.421875 4.328125 0.390625 L 3.046875 0.390625 C 3.117188 -0.492188 3.164062 -1.523438 3.1875 -2.703125 C 3.207031 -3.890625 3.222656 -5.429688 3.234375 -7.328125 C 3.253906 -9.234375 3.265625 -11.648438 3.265625 -14.578125 L 4.546875 -14.578125 C 4.691406 -12.140625 5.101562 -9.859375 5.78125 -7.734375 C 6.46875 -5.609375 7.519531 -3.898438 8.9375 -2.609375 C 10.363281 -1.316406 12.257812 -0.671875 14.625 -0.671875 C 15.914062 -0.671875 17.066406 -0.898438 18.078125 -1.359375 C 19.097656 -1.816406 19.921875 -2.507812 20.546875 -3.4375 C 21.179688 -4.363281 21.5 -5.507812 21.5 -6.875 C 21.5 -8.425781 21.140625 -9.769531 20.421875 -10.90625 C 19.703125 -12.050781 18.722656 -13.125 17.484375 -14.125 C 16.242188 -15.125 14.8125 -16.140625 13.1875 -17.171875 C 11.445312 -18.316406 9.820312 -19.460938 8.3125 -20.609375 C 6.800781 -21.753906 5.59375 -23.066406 4.6875 -24.546875 C 3.78125 -26.023438 3.328125 -27.78125 3.328125 -29.8125 C 3.328125 -32.132812 3.90625 -34.039062 5.0625 -35.53125 C 6.226562 -37.03125 7.757812 -38.140625 9.65625 -38.859375 C 11.5625 -39.585938 13.585938 -39.953125 15.734375 -39.953125 Z M 15.734375 -39.953125 "/></g></g></g><g fill="#e98b1b" fill-opacity="0.502"><g transform="translate(90.041273, 221.999797)"><g><path d="M 12.625 -29.25 L 12.625 4.546875 C 12.625 6.273438 13.066406 7.425781 13.953125 8 C 14.847656 8.570312 16.070312 8.859375 17.625 8.859375 L 17.625 10.03125 C 16.65625 9.988281 15.332031 9.941406 13.65625 9.890625 C 11.976562 9.835938 10.195312 9.8125 8.3125 9.8125 C 6.945312 9.8125 5.609375 9.835938 4.296875 9.890625 C 2.984375 9.941406 1.992188 9.988281 1.328125 10.03125 L 1.328125 8.859375 C 2.546875 8.859375 3.40625 8.597656 3.90625 8.078125 C 4.40625 7.566406 4.65625 6.570312 4.65625 5.09375 L 4.65625 -22.609375 C 4.65625 -24.265625 4.394531 -25.488281 3.875 -26.28125 C 3.363281 -27.082031 2.441406 -27.484375 1.109375 -27.484375 L 1.109375 -28.640625 C 2.285156 -28.535156 3.429688 -28.484375 4.546875 -28.484375 C 6.054688 -28.484375 7.492188 -28.546875 8.859375 -28.671875 C 10.234375 -28.796875 11.488281 -28.988281 12.625 -29.25 Z M 21.21875 -29.421875 C 23.101562 -29.421875 24.785156 -28.910156 26.265625 -27.890625 C 27.742188 -26.878906 28.925781 -25.347656 29.8125 -23.296875 C 30.695312 -21.242188 31.140625 -18.6875 31.140625 -15.625 C 31.140625 -12.925781 30.832031 -10.5625 30.21875 -8.53125 C 29.613281 -6.5 28.75 -4.789062 27.625 -3.40625 C 26.5 -2.019531 25.148438 -0.972656 23.578125 -0.265625 C 22.003906 0.429688 20.238281 0.78125 18.28125 0.78125 C 16.84375 0.78125 15.53125 0.53125 14.34375 0.03125 C 13.164062 -0.46875 12.265625 -1.179688 11.640625 -2.109375 L 12.1875 -2.828125 C 12.5625 -2.160156 13.085938 -1.640625 13.765625 -1.265625 C 14.453125 -0.898438 15.238281 -0.71875 16.125 -0.71875 C 17.78125 -0.71875 19.085938 -1.28125 20.046875 -2.40625 C 21.015625 -3.53125 21.707031 -5.117188 22.125 -7.171875 C 22.550781 -9.222656 22.765625 -11.671875 22.765625 -14.515625 C 22.765625 -17.691406 22.5625 -20.1875 22.15625 -22 C 21.75 -23.8125 21.195312 -25.101562 20.5 -25.875 C 19.800781 -26.644531 18.953125 -27.03125 17.953125 -27.03125 C 16.617188 -27.03125 15.40625 -26.515625 14.3125 -25.484375 C 13.226562 -24.453125 12.613281 -22.972656 12.46875 -21.046875 L 12.1875 -23 C 12.851562 -25.101562 13.988281 -26.695312 15.59375 -27.78125 C 17.195312 -28.875 19.070312 -29.421875 21.21875 -29.421875 Z M 21.21875 -29.421875 "/></g></g></g><g fill="#e98b1b" fill-opacity="0.502"><g transform="translate(121.290756, 221.999797)"><g><path d="M 15.625 -29.421875 C 18.875 -29.421875 21.421875 -28.457031 23.265625 -26.53125 C 25.117188 -24.613281 26.046875 -21.476562 26.046875 -17.125 L 7.8125 -17.125 L 7.703125 -18.171875 L 19.0625 -18.171875 C 19.09375 -19.984375 18.976562 -21.65625 18.71875 -23.1875 C 18.46875 -24.71875 18.0625 -25.941406 17.5 -26.859375 C 16.945312 -27.785156 16.210938 -28.25 15.296875 -28.25 C 14.003906 -28.25 12.90625 -27.4375 12 -25.8125 C 11.09375 -24.1875 10.546875 -21.492188 10.359375 -17.734375 L 10.53125 -17.390625 C 10.488281 -16.953125 10.457031 -16.492188 10.4375 -16.015625 C 10.425781 -15.535156 10.421875 -15.035156 10.421875 -14.515625 C 10.421875 -11.960938 10.78125 -9.890625 11.5 -8.296875 C 12.21875 -6.710938 13.128906 -5.5625 14.234375 -4.84375 C 15.347656 -4.125 16.476562 -3.765625 17.625 -3.765625 C 18.394531 -3.765625 19.195312 -3.882812 20.03125 -4.125 C 20.863281 -4.363281 21.703125 -4.804688 22.546875 -5.453125 C 23.398438 -6.097656 24.195312 -7.015625 24.9375 -8.203125 L 25.9375 -7.875 C 25.488281 -6.46875 24.785156 -5.097656 23.828125 -3.765625 C 22.867188 -2.429688 21.648438 -1.335938 20.171875 -0.484375 C 18.691406 0.359375 16.914062 0.78125 14.84375 0.78125 C 12.332031 0.78125 10.113281 0.242188 8.1875 -0.828125 C 6.269531 -1.898438 4.765625 -3.523438 3.671875 -5.703125 C 2.585938 -7.878906 2.046875 -10.648438 2.046875 -14.015625 C 2.046875 -17.453125 2.628906 -20.316406 3.796875 -22.609375 C 4.960938 -24.898438 6.566406 -26.609375 8.609375 -27.734375 C 10.660156 -28.859375 13 -29.421875 15.625 -29.421875 Z M 15.625 -29.421875 "/></g></g></g><g fill="#e98b1b" fill-opacity="0.502"><g transform="translate(147.221146, 221.999797)"><g><path d="M 21.9375 -29.421875 C 23.488281 -29.421875 24.753906 -29.222656 25.734375 -28.828125 C 26.710938 -28.441406 27.476562 -27.921875 28.03125 -27.265625 C 28.625 -26.554688 29.054688 -25.648438 29.328125 -24.546875 C 29.609375 -23.441406 29.75 -21.945312 29.75 -20.0625 L 29.75 -5.15625 C 29.75 -3.601562 30.015625 -2.546875 30.546875 -1.984375 C 31.085938 -1.429688 32.003906 -1.15625 33.296875 -1.15625 L 33.296875 0 C 32.597656 -0.0390625 31.546875 -0.0859375 30.140625 -0.140625 C 28.734375 -0.191406 27.347656 -0.21875 25.984375 -0.21875 C 24.578125 -0.21875 23.195312 -0.191406 21.84375 -0.140625 C 20.5 -0.0859375 19.476562 -0.0390625 18.78125 0 L 18.78125 -1.15625 C 19.882812 -1.15625 20.660156 -1.429688 21.109375 -1.984375 C 21.554688 -2.546875 21.78125 -3.601562 21.78125 -5.15625 L 21.78125 -22.390625 C 21.78125 -23.304688 21.6875 -24.101562 21.5 -24.78125 C 21.3125 -25.46875 20.976562 -26.003906 20.5 -26.390625 C 20.019531 -26.785156 19.300781 -26.984375 18.34375 -26.984375 C 17.34375 -26.984375 16.425781 -26.707031 15.59375 -26.15625 C 14.757812 -25.601562 14.09375 -24.835938 13.59375 -23.859375 C 13.101562 -22.878906 12.859375 -21.78125 12.859375 -20.5625 L 12.859375 -5.15625 C 12.859375 -3.601562 13.085938 -2.546875 13.546875 -1.984375 C 14.003906 -1.429688 14.769531 -1.15625 15.84375 -1.15625 L 15.84375 0 C 15.175781 -0.0390625 14.207031 -0.0859375 12.9375 -0.140625 C 11.664062 -0.191406 10.34375 -0.21875 8.96875 -0.21875 C 7.570312 -0.21875 6.132812 -0.191406 4.65625 -0.140625 C 3.175781 -0.0859375 2.066406 -0.0390625 1.328125 0 L 1.328125 -1.15625 C 2.617188 -1.15625 3.53125 -1.429688 4.0625 -1.984375 C 4.601562 -2.546875 4.875 -3.601562 4.875 -5.15625 L 4.875 -22.609375 C 4.875 -24.265625 4.625 -25.488281 4.125 -26.28125 C 3.625 -27.082031 2.691406 -27.484375 1.328125 -27.484375 L 1.328125 -28.640625 C 2.515625 -28.535156 3.660156 -28.484375 4.765625 -28.484375 C 6.316406 -28.484375 7.765625 -28.546875 9.109375 -28.671875 C 10.460938 -28.796875 11.710938 -28.988281 12.859375 -29.25 L 12.859375 -24.265625 C 13.773438 -26.148438 15.023438 -27.476562 16.609375 -28.25 C 18.203125 -29.03125 19.976562 -29.421875 21.9375 -29.421875 Z M 21.9375 -29.421875 "/></g></g></g><g fill="#e98b1b" fill-opacity="0.502"><g transform="translate(179.246326, 221.999797)"><g><path d="M 28.59375 -43.390625 L 28.59375 -6.09375 C 28.59375 -4.425781 28.847656 -3.195312 29.359375 -2.40625 C 29.878906 -1.613281 30.804688 -1.21875 32.140625 -1.21875 L 32.140625 -0.0625 C 30.992188 -0.164062 29.847656 -0.21875 28.703125 -0.21875 C 27.148438 -0.21875 25.695312 -0.160156 24.34375 -0.046875 C 23 0.0546875 21.753906 0.253906 20.609375 0.546875 L 20.609375 -36.734375 C 20.609375 -38.398438 20.359375 -39.628906 19.859375 -40.421875 C 19.359375 -41.210938 18.425781 -41.609375 17.0625 -41.609375 L 17.0625 -42.78125 C 18.25 -42.664062 19.394531 -42.609375 20.5 -42.609375 C 22.007812 -42.609375 23.445312 -42.671875 24.8125 -42.796875 C 26.1875 -42.929688 27.445312 -43.128906 28.59375 -43.390625 Z M 14.46875 -29.421875 C 16.09375 -29.421875 17.519531 -29.148438 18.75 -28.609375 C 19.988281 -28.078125 20.957031 -27.1875 21.65625 -25.9375 L 21 -25.328125 C 20.519531 -26.210938 19.878906 -26.847656 19.078125 -27.234375 C 18.285156 -27.617188 17.445312 -27.8125 16.5625 -27.8125 C 14.675781 -27.8125 13.179688 -26.710938 12.078125 -24.515625 C 10.972656 -22.316406 10.4375 -18.925781 10.46875 -14.34375 C 10.46875 -11.207031 10.679688 -8.707031 11.109375 -6.84375 C 11.535156 -4.976562 12.144531 -3.640625 12.9375 -2.828125 C 13.726562 -2.015625 14.644531 -1.609375 15.6875 -1.609375 C 16.9375 -1.609375 18.0625 -2.101562 19.0625 -3.09375 C 20.0625 -4.09375 20.597656 -5.441406 20.671875 -7.140625 L 20.9375 -5.203125 C 20.382812 -3.242188 19.488281 -1.753906 18.25 -0.734375 C 17.019531 0.273438 15.40625 0.78125 13.40625 0.78125 C 11.226562 0.78125 9.28125 0.242188 7.5625 -0.828125 C 5.84375 -1.898438 4.503906 -3.550781 3.546875 -5.78125 C 2.585938 -8.019531 2.109375 -10.914062 2.109375 -14.46875 C 2.109375 -17.820312 2.640625 -20.597656 3.703125 -22.796875 C 4.773438 -24.992188 6.242188 -26.644531 8.109375 -27.75 C 9.984375 -28.863281 12.101562 -29.421875 14.46875 -29.421875 Z M 14.46875 -29.421875 "/></g></g></g><g fill="#e98b1b" fill-opacity="0.502"><g transform="translate(210.384988, 221.999797)"><g><path d="M 8.53125 -42.9375 C 10.082031 -42.9375 11.3125 -42.554688 12.21875 -41.796875 C 13.125 -41.046875 13.578125 -40.003906 13.578125 -38.671875 C 13.578125 -37.335938 13.125 -36.289062 12.21875 -35.53125 C 11.3125 -34.78125 10.082031 -34.40625 8.53125 -34.40625 C 6.976562 -34.40625 5.75 -34.78125 4.84375 -35.53125 C 3.9375 -36.289062 3.484375 -37.335938 3.484375 -38.671875 C 3.484375 -40.003906 3.9375 -41.046875 4.84375 -41.796875 C 5.75 -42.554688 6.976562 -42.9375 8.53125 -42.9375 Z M 12.859375 -29.25 L 12.859375 -5.15625 C 12.859375 -3.601562 13.125 -2.546875 13.65625 -1.984375 C 14.195312 -1.429688 15.113281 -1.15625 16.40625 -1.15625 L 16.40625 0 C 15.738281 -0.0390625 14.703125 -0.0859375 13.296875 -0.140625 C 11.890625 -0.191406 10.46875 -0.21875 9.03125 -0.21875 C 7.59375 -0.21875 6.132812 -0.191406 4.65625 -0.140625 C 3.175781 -0.0859375 2.066406 -0.0390625 1.328125 0 L 1.328125 -1.15625 C 2.617188 -1.15625 3.53125 -1.429688 4.0625 -1.984375 C 4.601562 -2.546875 4.875 -3.601562 4.875 -5.15625 L 4.875 -22.609375 C 4.875 -24.265625 4.625 -25.488281 4.125 -26.28125 C 3.625 -27.082031 2.691406 -27.484375 1.328125 -27.484375 L 1.328125 -28.640625 C 2.515625 -28.535156 3.660156 -28.484375 4.765625 -28.484375 C 6.316406 -28.484375 7.765625 -28.546875 9.109375 -28.671875 C 10.460938 -28.796875 11.710938 -28.988281 12.859375 -29.25 Z M 12.859375 -29.25 "/></g></g></g><g fill="#e98b1b" fill-opacity="0.502"><g transform="translate(225.84344, 221.999797)"><g><path d="M 12.625 -43.390625 L 12.625 -5.15625 C 12.625 -3.601562 12.890625 -2.546875 13.421875 -1.984375 C 13.960938 -1.429688 14.878906 -1.15625 16.171875 -1.15625 L 16.171875 0 C 15.472656 -0.0390625 14.421875 -0.0859375 13.015625 -0.140625 C 11.617188 -0.191406 10.195312 -0.21875 8.75 -0.21875 C 7.3125 -0.21875 5.863281 -0.191406 4.40625 -0.140625 C 2.945312 -0.0859375 1.847656 -0.0390625 1.109375 0 L 1.109375 -1.15625 C 2.398438 -1.15625 3.3125 -1.429688 3.84375 -1.984375 C 4.382812 -2.546875 4.65625 -3.601562 4.65625 -5.15625 L 4.65625 -36.734375 C 4.65625 -38.398438 4.40625 -39.628906 3.90625 -40.421875 C 3.40625 -41.210938 2.472656 -41.609375 1.109375 -41.609375 L 1.109375 -42.78125 C 2.285156 -42.664062 3.429688 -42.609375 4.546875 -42.609375 C 6.054688 -42.609375 7.492188 -42.671875 8.859375 -42.796875 C 10.234375 -42.929688 11.488281 -43.128906 12.625 -43.390625 Z M 12.625 -43.390625 "/></g></g></g><g fill="#ffd700" fill-opacity="1"><g transform="translate(58.613015, 221.694332)"><g><path d="M 15.734375 -39.953125 C 17.910156 -39.953125 19.585938 -39.71875 20.765625 -39.25 C 21.953125 -38.789062 22.972656 -38.300781 23.828125 -37.78125 C 24.265625 -37.53125 24.625 -37.335938 24.90625 -37.203125 C 25.1875 -37.078125 25.453125 -37.015625 25.703125 -37.015625 C 26.078125 -37.015625 26.347656 -37.21875 26.515625 -37.625 C 26.679688 -38.03125 26.816406 -38.640625 26.921875 -39.453125 L 28.203125 -39.453125 C 28.160156 -38.742188 28.113281 -37.898438 28.0625 -36.921875 C 28.007812 -35.941406 27.972656 -34.65625 27.953125 -33.0625 C 27.929688 -31.476562 27.921875 -29.394531 27.921875 -26.8125 L 26.65625 -26.8125 C 26.5 -28.738281 26.050781 -30.601562 25.3125 -32.40625 C 24.582031 -34.21875 23.539062 -35.707031 22.1875 -36.875 C 20.84375 -38.039062 19.191406 -38.625 17.234375 -38.625 C 15.460938 -38.625 14.003906 -38.125 12.859375 -37.125 C 11.710938 -36.125 11.140625 -34.738281 11.140625 -32.96875 C 11.140625 -31.488281 11.507812 -30.222656 12.25 -29.171875 C 12.988281 -28.117188 14.066406 -27.09375 15.484375 -26.09375 C 16.910156 -25.09375 18.640625 -23.894531 20.671875 -22.5 C 22.441406 -21.351562 24.023438 -20.207031 25.421875 -19.0625 C 26.828125 -17.914062 27.953125 -16.617188 28.796875 -15.171875 C 29.648438 -13.734375 30.078125 -12.019531 30.078125 -10.03125 C 30.078125 -7.59375 29.441406 -5.578125 28.171875 -3.984375 C 26.898438 -2.398438 25.226562 -1.207031 23.15625 -0.40625 C 21.09375 0.382812 18.820312 0.78125 16.34375 0.78125 C 14.050781 0.78125 12.222656 0.554688 10.859375 0.109375 C 9.492188 -0.328125 8.347656 -0.789062 7.421875 -1.28125 C 6.609375 -1.789062 5.984375 -2.046875 5.546875 -2.046875 C 5.171875 -2.046875 4.898438 -1.84375 4.734375 -1.4375 C 4.566406 -1.03125 4.429688 -0.421875 4.328125 0.390625 L 3.046875 0.390625 C 3.117188 -0.492188 3.164062 -1.523438 3.1875 -2.703125 C 3.207031 -3.890625 3.222656 -5.429688 3.234375 -7.328125 C 3.253906 -9.234375 3.265625 -11.648438 3.265625 -14.578125 L 4.546875 -14.578125 C 4.691406 -12.140625 5.101562 -9.859375 5.78125 -7.734375 C 6.46875 -5.609375 7.519531 -3.898438 8.9375 -2.609375 C 10.363281 -1.316406 12.257812 -0.671875 14.625 -0.671875 C 15.914062 -0.671875 17.066406 -0.898438 18.078125 -1.359375 C 19.097656 -1.816406 19.921875 -2.507812 20.546875 -3.4375 C 21.179688 -4.363281 21.5 -5.507812 21.5 -6.875 C 21.5 -8.425781 21.140625 -9.769531 20.421875 -10.90625 C 19.703125 -12.050781 18.722656 -13.125 17.484375 -14.125 C 16.242188 -15.125 14.8125 -16.140625 13.1875 -17.171875 C 11.445312 -18.316406 9.820312 -19.460938 8.3125 -20.609375 C 6.800781 -21.753906 5.59375 -23.066406 4.6875 -24.546875 C 3.78125 -26.023438 3.328125 -27.78125 3.328125 -29.8125 C 3.328125 -32.132812 3.90625 -34.039062 5.0625 -35.53125 C 6.226562 -37.03125 7.757812 -38.140625 9.65625 -38.859375 C 11.5625 -39.585938 13.585938 -39.953125 15.734375 -39.953125 Z M 15.734375 -39.953125 "/></g></g></g><g fill="#ffd700" fill-opacity="1"><g transform="translate(88.975982, 221.694332)"><g><path d="M 12.625 -29.25 L 12.625 4.546875 C 12.625 6.273438 13.066406 7.425781 13.953125 8 C 14.847656 8.570312 16.070312 8.859375 17.625 8.859375 L 17.625 10.03125 C 16.65625 9.988281 15.332031 9.941406 13.65625 9.890625 C 11.976562 9.835938 10.195312 9.8125 8.3125 9.8125 C 6.945312 9.8125 5.609375 9.835938 4.296875 9.890625 C 2.984375 9.941406 1.992188 9.988281 1.328125 10.03125 L 1.328125 8.859375 C 2.546875 8.859375 3.40625 8.597656 3.90625 8.078125 C 4.40625 7.566406 4.65625 6.570312 4.65625 5.09375 L 4.65625 -22.609375 C 4.65625 -24.265625 4.394531 -25.488281 3.875 -26.28125 C 3.363281 -27.082031 2.441406 -27.484375 1.109375 -27.484375 L 1.109375 -28.640625 C 2.285156 -28.535156 3.429688 -28.484375 4.546875 -28.484375 C 6.054688 -28.484375 7.492188 -28.546875 8.859375 -28.671875 C 10.234375 -28.796875 11.488281 -28.988281 12.625 -29.25 Z M 21.21875 -29.421875 C 23.101562 -29.421875 24.785156 -28.910156 26.265625 -27.890625 C 27.742188 -26.878906 28.925781 -25.347656 29.8125 -23.296875 C 30.695312 -21.242188 31.140625 -18.6875 31.140625 -15.625 C 31.140625 -12.925781 30.832031 -10.5625 30.21875 -8.53125 C 29.613281 -6.5 28.75 -4.789062 27.625 -3.40625 C 26.5 -2.019531 25.148438 -0.972656 23.578125 -0.265625 C 22.003906 0.429688 20.238281 0.78125 18.28125 0.78125 C 16.84375 0.78125 15.53125 0.53125 14.34375 0.03125 C 13.164062 -0.46875 12.265625 -1.179688 11.640625 -2.109375 L 12.1875 -2.828125 C 12.5625 -2.160156 13.085938 -1.640625 13.765625 -1.265625 C 14.453125 -0.898438 15.238281 -0.71875 16.125 -0.71875 C 17.78125 -0.71875 19.085938 -1.28125 20.046875 -2.40625 C 21.015625 -3.53125 21.707031 -5.117188 22.125 -7.171875 C 22.550781 -9.222656 22.765625 -11.671875 22.765625 -14.515625 C 22.765625 -17.691406 22.5625 -20.1875 22.15625 -22 C 21.75 -23.8125 21.195312 -25.101562 20.5 -25.875 C 19.800781 -26.644531 18.953125 -27.03125 17.953125 -27.03125 C 16.617188 -27.03125 15.40625 -26.515625 14.3125 -25.484375 C 13.226562 -24.453125 12.613281 -22.972656 12.46875 -21.046875 L 12.1875 -23 C 12.851562 -25.101562 13.988281 -26.695312 15.59375 -27.78125 C 17.195312 -28.875 19.070312 -29.421875 21.21875 -29.421875 Z M 21.21875 -29.421875 "/></g></g></g><g fill="#ffd700" fill-opacity="1"><g transform="translate(120.225465, 221.694332)"><g><path d="M 15.625 -29.421875 C 18.875 -29.421875 21.421875 -28.457031 23.265625 -26.53125 C 25.117188 -24.613281 26.046875 -21.476562 26.046875 -17.125 L 7.8125 -17.125 L 7.703125 -18.171875 L 19.0625 -18.171875 C 19.09375 -19.984375 18.976562 -21.65625 18.71875 -23.1875 C 18.46875 -24.71875 18.0625 -25.941406 17.5 -26.859375 C 16.945312 -27.785156 16.210938 -28.25 15.296875 -28.25 C 14.003906 -28.25 12.90625 -27.4375 12 -25.8125 C 11.09375 -24.1875 10.546875 -21.492188 10.359375 -17.734375 L 10.53125 -17.390625 C 10.488281 -16.953125 10.457031 -16.492188 10.4375 -16.015625 C 10.425781 -15.535156 10.421875 -15.035156 10.421875 -14.515625 C 10.421875 -11.960938 10.78125 -9.890625 11.5 -8.296875 C 12.21875 -6.710938 13.128906 -5.5625 14.234375 -4.84375 C 15.347656 -4.125 16.476562 -3.765625 17.625 -3.765625 C 18.394531 -3.765625 19.195312 -3.882812 20.03125 -4.125 C 20.863281 -4.363281 21.703125 -4.804688 22.546875 -5.453125 C 23.398438 -6.097656 24.195312 -7.015625 24.9375 -8.203125 L 25.9375 -7.875 C 25.488281 -6.46875 24.785156 -5.097656 23.828125 -3.765625 C 22.867188 -2.429688 21.648438 -1.335938 20.171875 -0.484375 C 18.691406 0.359375 16.914062 0.78125 14.84375 0.78125 C 12.332031 0.78125 10.113281 0.242188 8.1875 -0.828125 C 6.269531 -1.898438 4.765625 -3.523438 3.671875 -5.703125 C 2.585938 -7.878906 2.046875 -10.648438 2.046875 -14.015625 C 2.046875 -17.453125 2.628906 -20.316406 3.796875 -22.609375 C 4.960938 -24.898438 6.566406 -26.609375 8.609375 -27.734375 C 10.660156 -28.859375 13 -29.421875 15.625 -29.421875 Z M 15.625 -29.421875 "/></g></g></g><g fill="#ffd700" fill-opacity="1"><g transform="translate(146.155855, 221.694332)"><g><path d="M 21.9375 -29.421875 C 23.488281 -29.421875 24.753906 -29.222656 25.734375 -28.828125 C 26.710938 -28.441406 27.476562 -27.921875 28.03125 -27.265625 C 28.625 -26.554688 29.054688 -25.648438 29.328125 -24.546875 C 29.609375 -23.441406 29.75 -21.945312 29.75 -20.0625 L 29.75 -5.15625 C 29.75 -3.601562 30.015625 -2.546875 30.546875 -1.984375 C 31.085938 -1.429688 32.003906 -1.15625 33.296875 -1.15625 L 33.296875 0 C 32.597656 -0.0390625 31.546875 -0.0859375 30.140625 -0.140625 C 28.734375 -0.191406 27.347656 -0.21875 25.984375 -0.21875 C 24.578125 -0.21875 23.195312 -0.191406 21.84375 -0.140625 C 20.5 -0.0859375 19.476562 -0.0390625 18.78125 0 L 18.78125 -1.15625 C 19.882812 -1.15625 20.660156 -1.429688 21.109375 -1.984375 C 21.554688 -2.546875 21.78125 -3.601562 21.78125 -5.15625 L 21.78125 -22.390625 C 21.78125 -23.304688 21.6875 -24.101562 21.5 -24.78125 C 21.3125 -25.46875 20.976562 -26.003906 20.5 -26.390625 C 20.019531 -26.785156 19.300781 -26.984375 18.34375 -26.984375 C 17.34375 -26.984375 16.425781 -26.707031 15.59375 -26.15625 C 14.757812 -25.601562 14.09375 -24.835938 13.59375 -23.859375 C 13.101562 -22.878906 12.859375 -21.78125 12.859375 -20.5625 L 12.859375 -5.15625 C 12.859375 -3.601562 13.085938 -2.546875 13.546875 -1.984375 C 14.003906 -1.429688 14.769531 -1.15625 15.84375 -1.15625 L 15.84375 0 C 15.175781 -0.0390625 14.207031 -0.0859375 12.9375 -0.140625 C 11.664062 -0.191406 10.34375 -0.21875 8.96875 -0.21875 C 7.570312 -0.21875 6.132812 -0.191406 4.65625 -0.140625 C 3.175781 -0.0859375 2.066406 -0.0390625 1.328125 0 L 1.328125 -1.15625 C 2.617188 -1.15625 3.53125 -1.429688 4.0625 -1.984375 C 4.601562 -2.546875 4.875 -3.601562 4.875 -5.15625 L 4.875 -22.609375 C 4.875 -24.265625 4.625 -25.488281 4.125 -26.28125 C 3.625 -27.082031 2.691406 -27.484375 1.328125 -27.484375 L 1.328125 -28.640625 C 2.515625 -28.535156 3.660156 -28.484375 4.765625 -28.484375 C 6.316406 -28.484375 7.765625 -28.546875 9.109375 -28.671875 C 10.460938 -28.796875 11.710938 -28.988281 12.859375 -29.25 L 12.859375 -24.265625 C 13.773438 -26.148438 15.023438 -27.476562 16.609375 -28.25 C 18.203125 -29.03125 19.976562 -29.421875 21.9375 -29.421875 Z M 21.9375 -29.421875 "/></g></g></g><g fill="#ffd700" fill-opacity="1"><g transform="translate(178.181035, 221.694332)"><g><path d="M 28.59375 -43.390625 L 28.59375 -6.09375 C 28.59375 -4.425781 28.847656 -3.195312 29.359375 -2.40625 C 29.878906 -1.613281 30.804688 -1.21875 32.140625 -1.21875 L 32.140625 -0.0625 C 30.992188 -0.164062 29.847656 -0.21875 28.703125 -0.21875 C 27.148438 -0.21875 25.695312 -0.160156 24.34375 -0.046875 C 23 0.0546875 21.753906 0.253906 20.609375 0.546875 L 20.609375 -36.734375 C 20.609375 -38.398438 20.359375 -39.628906 19.859375 -40.421875 C 19.359375 -41.210938 18.425781 -41.609375 17.0625 -41.609375 L 17.0625 -42.78125 C 18.25 -42.664062 19.394531 -42.609375 20.5 -42.609375 C 22.007812 -42.609375 23.445312 -42.671875 24.8125 -42.796875 C 26.1875 -42.929688 27.445312 -43.128906 28.59375 -43.390625 Z M 14.46875 -29.421875 C 16.09375 -29.421875 17.519531 -29.148438 18.75 -28.609375 C 19.988281 -28.078125 20.957031 -27.1875 21.65625 -25.9375 L 21 -25.328125 C 20.519531 -26.210938 19.878906 -26.847656 19.078125 -27.234375 C 18.285156 -27.617188 17.445312 -27.8125 16.5625 -27.8125 C 14.675781 -27.8125 13.179688 -26.710938 12.078125 -24.515625 C 10.972656 -22.316406 10.4375 -18.925781 10.46875 -14.34375 C 10.46875 -11.207031 10.679688 -8.707031 11.109375 -6.84375 C 11.535156 -4.976562 12.144531 -3.640625 12.9375 -2.828125 C 13.726562 -2.015625 14.644531 -1.609375 15.6875 -1.609375 C 16.9375 -1.609375 18.0625 -2.101562 19.0625 -3.09375 C 20.0625 -4.09375 20.597656 -5.441406 20.671875 -7.140625 L 20.9375 -5.203125 C 20.382812 -3.242188 19.488281 -1.753906 18.25 -0.734375 C 17.019531 0.273438 15.40625 0.78125 13.40625 0.78125 C 11.226562 0.78125 9.28125 0.242188 7.5625 -0.828125 C 5.84375 -1.898438 4.503906 -3.550781 3.546875 -5.78125 C 2.585938 -8.019531 2.109375 -10.914062 2.109375 -14.46875 C 2.109375 -17.820312 2.640625 -20.597656 3.703125 -22.796875 C 4.773438 -24.992188 6.242188 -26.644531 8.109375 -27.75 C 9.984375 -28.863281 12.101562 -29.421875 14.46875 -29.421875 Z M 14.46875 -29.421875 "/></g></g></g><g fill="#ffd700" fill-opacity="1"><g transform="translate(209.319697, 221.694332)"><g><path d="M 8.53125 -42.9375 C 10.082031 -42.9375 11.3125 -42.554688 12.21875 -41.796875 C 13.125 -41.046875 13.578125 -40.003906 13.578125 -38.671875 C 13.578125 -37.335938 13.125 -36.289062 12.21875 -35.53125 C 11.3125 -34.78125 10.082031 -34.40625 8.53125 -34.40625 C 6.976562 -34.40625 5.75 -34.78125 4.84375 -35.53125 C 3.9375 -36.289062 3.484375 -37.335938 3.484375 -38.671875 C 3.484375 -40.003906 3.9375 -41.046875 4.84375 -41.796875 C 5.75 -42.554688 6.976562 -42.9375 8.53125 -42.9375 Z M 12.859375 -29.25 L 12.859375 -5.15625 C 12.859375 -3.601562 13.125 -2.546875 13.65625 -1.984375 C 14.195312 -1.429688 15.113281 -1.15625 16.40625 -1.15625 L 16.40625 0 C 15.738281 -0.0390625 14.703125 -0.0859375 13.296875 -0.140625 C 11.890625 -0.191406 10.46875 -0.21875 9.03125 -0.21875 C 7.59375 -0.21875 6.132812 -0.191406 4.65625 -0.140625 C 3.175781 -0.0859375 2.066406 -0.0390625 1.328125 0 L 1.328125 -1.15625 C 2.617188 -1.15625 3.53125 -1.429688 4.0625 -1.984375 C 4.601562 -2.546875 4.875 -3.601562 4.875 -5.15625 L 4.875 -22.609375 C 4.875 -24.265625 4.625 -25.488281 4.125 -26.28125 C 3.625 -27.082031 2.691406 -27.484375 1.328125 -27.484375 L 1.328125 -28.640625 C 2.515625 -28.535156 3.660156 -28.484375 4.765625 -28.484375 C 6.316406 -28.484375 7.765625 -28.546875 9.109375 -28.671875 C 10.460938 -28.796875 11.710938 -28.988281 12.859375 -29.25 Z M 12.859375 -29.25 "/></g></g></g><g fill="#ffd700" fill-opacity="1"><g transform="translate(224.778149, 221.694332)"><g><path d="M 12.625 -43.390625 L 12.625 -5.15625 C 12.625 -3.601562 12.890625 -2.546875 13.421875 -1.984375 C 13.960938 -1.429688 14.878906 -1.15625 16.171875 -1.15625 L 16.171875 0 C 15.472656 -0.0390625 14.421875 -0.0859375 13.015625 -0.140625 C 11.617188 -0.191406 10.195312 -0.21875 8.75 -0.21875 C 7.3125 -0.21875 5.863281 -0.191406 4.40625 -0.140625 C 2.945312 -0.0859375 1.847656 -0.0390625 1.109375 0 L 1.109375 -1.15625 C 2.398438 -1.15625 3.3125 -1.429688 3.84375 -1.984375 C 4.382812 -2.546875 4.65625 -3.601562 4.65625 -5.15625 L 4.65625 -36.734375 C 4.65625 -38.398438 4.40625 -39.628906 3.90625 -40.421875 C 3.40625 -41.210938 2.472656 -41.609375 1.109375 -41.609375 L 1.109375 -42.78125 C 2.285156 -42.664062 3.429688 -42.609375 4.546875 -42.609375 C 6.054688 -42.609375 7.492188 -42.671875 8.859375 -42.796875 C 10.234375 -42.929688 11.488281 -43.128906 12.625 -43.390625 Z M 12.625 -43.390625 "/></g></g></g><g fill="#e98b1b" fill-opacity="0.302"><g transform="translate(242.152164, 222.305259)"><g/></g></g><g fill="#e98b1b" fill-opacity="0.302"><g transform="translate(253.067227, 222.305259)"><g/></g></g><g fill="#e98b1b" fill-opacity="0.302"><g transform="translate(263.98229, 222.305259)"><g/></g></g><g fill="#ffd700" fill-opacity="1"><g transform="translate(240.021584, 221.694332)"><g/></g></g><g fill="#ffd700" fill-opacity="1"><g transform="translate(250.936647, 221.694332)"><g/></g></g><g fill="#ffd700" fill-opacity="1"><g transform="translate(261.85171, 221.694332)"><g/></g></g><g fill="#e98b1b" fill-opacity="0.302"><g transform="translate(274.904166, 222.305259)"><g><path d="M 14.6875 -28.640625 L 14.6875 -27.484375 C 13.875 -27.484375 13.160156 -27.4375 12.546875 -27.34375 C 11.941406 -27.25 11.535156 -26.976562 11.328125 -26.53125 C 11.128906 -26.09375 11.195312 -25.375 11.53125 -24.375 L 16.78125 -7.921875 L 16.0625 -7.140625 L 22.546875 -28.703125 L 23.65625 -28.203125 L 15.1875 0.109375 C 14.59375 0.078125 14 0.0625 13.40625 0.0625 C 12.8125 0.0625 12.203125 0.078125 11.578125 0.109375 L 2.828125 -24.375 C 2.304688 -25.851562 1.738281 -26.738281 1.125 -27.03125 C 0.519531 -27.332031 0.015625 -27.484375 -0.390625 -27.484375 L -0.390625 -28.640625 C 0.796875 -28.535156 2.023438 -28.453125 3.296875 -28.390625 C 4.566406 -28.335938 5.960938 -28.3125 7.484375 -28.3125 C 8.628906 -28.3125 9.835938 -28.347656 11.109375 -28.421875 C 12.378906 -28.492188 13.570312 -28.566406 14.6875 -28.640625 Z M 43.609375 -28.640625 L 43.609375 -27.53125 C 42.898438 -27.351562 42.234375 -26.929688 41.609375 -26.265625 C 40.984375 -25.597656 40.394531 -24.429688 39.84375 -22.765625 L 32.46875 0.109375 C 31.875 0.078125 31.269531 0.0625 30.65625 0.0625 C 30.050781 0.0625 29.453125 0.078125 28.859375 0.109375 L 21.046875 -21.21875 L 22.546875 -28.703125 C 23.210938 -28.660156 23.882812 -28.648438 24.5625 -28.671875 C 25.25 -28.691406 25.925781 -28.703125 26.59375 -28.703125 L 34.1875 -6.3125 L 33.578125 -6.921875 L 37.28125 -18.671875 C 37.914062 -20.703125 38.15625 -22.34375 38 -23.59375 C 37.851562 -24.851562 37.410156 -25.796875 36.671875 -26.421875 C 35.941406 -27.054688 34.945312 -27.425781 33.6875 -27.53125 L 33.6875 -28.640625 C 34.28125 -28.609375 34.914062 -28.582031 35.59375 -28.5625 C 36.28125 -28.539062 36.960938 -28.519531 37.640625 -28.5 C 38.328125 -28.488281 38.910156 -28.484375 39.390625 -28.484375 C 40.128906 -28.484375 40.894531 -28.5 41.6875 -28.53125 C 42.488281 -28.570312 43.128906 -28.609375 43.609375 -28.640625 Z M 43.609375 -28.640625 "/></g></g></g><g fill="#e98b1b" fill-opacity="0.502"><g transform="translate(273.838876, 221.999797)"><g><path d="M 14.6875 -28.640625 L 14.6875 -27.484375 C 13.875 -27.484375 13.160156 -27.4375 12.546875 -27.34375 C 11.941406 -27.25 11.535156 -26.976562 11.328125 -26.53125 C 11.128906 -26.09375 11.195312 -25.375 11.53125 -24.375 L 16.78125 -7.921875 L 16.0625 -7.140625 L 22.546875 -28.703125 L 23.65625 -28.203125 L 15.1875 0.109375 C 14.59375 0.078125 14 0.0625 13.40625 0.0625 C 12.8125 0.0625 12.203125 0.078125 11.578125 0.109375 L 2.828125 -24.375 C 2.304688 -25.851562 1.738281 -26.738281 1.125 -27.03125 C 0.519531 -27.332031 0.015625 -27.484375 -0.390625 -27.484375 L -0.390625 -28.640625 C 0.796875 -28.535156 2.023438 -28.453125 3.296875 -28.390625 C 4.566406 -28.335938 5.960938 -28.3125 7.484375 -28.3125 C 8.628906 -28.3125 9.835938 -28.347656 11.109375 -28.421875 C 12.378906 -28.492188 13.570312 -28.566406 14.6875 -28.640625 Z M 43.609375 -28.640625 L 43.609375 -27.53125 C 42.898438 -27.351562 42.234375 -26.929688 41.609375 -26.265625 C 40.984375 -25.597656 40.394531 -24.429688 39.84375 -22.765625 L 32.46875 0.109375 C 31.875 0.078125 31.269531 0.0625 30.65625 0.0625 C 30.050781 0.0625 29.453125 0.078125 28.859375 0.109375 L 21.046875 -21.21875 L 22.546875 -28.703125 C 23.210938 -28.660156 23.882812 -28.648438 24.5625 -28.671875 C 25.25 -28.691406 25.925781 -28.703125 26.59375 -28.703125 L 34.1875 -6.3125 L 33.578125 -6.921875 L 37.28125 -18.671875 C 37.914062 -20.703125 38.15625 -22.34375 38 -23.59375 C 37.851562 -24.851562 37.410156 -25.796875 36.671875 -26.421875 C 35.941406 -27.054688 34.945312 -27.425781 33.6875 -27.53125 L 33.6875 -28.640625 C 34.28125 -28.609375 34.914062 -28.582031 35.59375 -28.5625 C 36.28125 -28.539062 36.960938 -28.519531 37.640625 -28.5 C 38.328125 -28.488281 38.910156 -28.484375 39.390625 -28.484375 C 40.128906 -28.484375 40.894531 -28.5 41.6875 -28.53125 C 42.488281 -28.570312 43.128906 -28.609375 43.609375 -28.640625 Z M 43.609375 -28.640625 "/></g></g></g><g fill="#ffd700" fill-opacity="1"><g transform="translate(272.773585, 221.694332)"><g><path d="M 14.6875 -28.640625 L 14.6875 -27.484375 C 13.875 -27.484375 13.160156 -27.4375 12.546875 -27.34375 C 11.941406 -27.25 11.535156 -26.976562 11.328125 -26.53125 C 11.128906 -26.09375 11.195312 -25.375 11.53125 -24.375 L 16.78125 -7.921875 L 16.0625 -7.140625 L 22.546875 -28.703125 L 23.65625 -28.203125 L 15.1875 0.109375 C 14.59375 0.078125 14 0.0625 13.40625 0.0625 C 12.8125 0.0625 12.203125 0.078125 11.578125 0.109375 L 2.828125 -24.375 C 2.304688 -25.851562 1.738281 -26.738281 1.125 -27.03125 C 0.519531 -27.332031 0.015625 -27.484375 -0.390625 -27.484375 L -0.390625 -28.640625 C 0.796875 -28.535156 2.023438 -28.453125 3.296875 -28.390625 C 4.566406 -28.335938 5.960938 -28.3125 7.484375 -28.3125 C 8.628906 -28.3125 9.835938 -28.347656 11.109375 -28.421875 C 12.378906 -28.492188 13.570312 -28.566406 14.6875 -28.640625 Z M 43.609375 -28.640625 L 43.609375 -27.53125 C 42.898438 -27.351562 42.234375 -26.929688 41.609375 -26.265625 C 40.984375 -25.597656 40.394531 -24.429688 39.84375 -22.765625 L 32.46875 0.109375 C 31.875 0.078125 31.269531 0.0625 30.65625 0.0625 C 30.050781 0.0625 29.453125 0.078125 28.859375 0.109375 L 21.046875 -21.21875 L 22.546875 -28.703125 C 23.210938 -28.660156 23.882812 -28.648438 24.5625 -28.671875 C 25.25 -28.691406 25.925781 -28.703125 26.59375 -28.703125 L 34.1875 -6.3125 L 33.578125 -6.921875 L 37.28125 -18.671875 C 37.914062 -20.703125 38.15625 -22.34375 38 -23.59375 C 37.851562 -24.851562 37.410156 -25.796875 36.671875 -26.421875 C 35.941406 -27.054688 34.945312 -27.425781 33.6875 -27.53125 L 33.6875 -28.640625 C 34.28125 -28.609375 34.914062 -28.582031 35.59375 -28.5625 C 36.28125 -28.539062 36.960938 -28.519531 37.640625 -28.5 C 38.328125 -28.488281 38.910156 -28.484375 39.390625 -28.484375 C 40.128906 -28.484375 40.894531 -28.5 41.6875 -28.53125 C 42.488281 -28.570312 43.128906 -28.609375 43.609375 -28.640625 Z M 43.609375 -28.640625 "/></g></g></g></svg>